<svg width="1931" height="1089" viewBox="0 0 1931 1089" fill="none" xmlns="http://www.w3.org/2000/svg">
<rect width="1931" height="1089" fill="#1E1E1E"/>
<rect id="SetPrincipal" x="4.70587" width="1920" height="1080" fill="#1031B5"/>
<g id="Desk" filter="url(#filter0_dd_0_1)">
<rect x="4.70587" y="801" width="1920" height="280" fill="#603A31"/>
</g>
<rect id="PaloMicrofono" x="600.706" y="681" width="18" height="120" rx="4" fill="#888888"/>
<ellipse id="Microfono" cx="609.206" cy="653.5" rx="22.5" ry="27.5" fill="#333333"/>
<path id="Monitor" d="M646.706 581.675L682.634 626L748.242 581.675L810.726 626L875.553 581.675L953.658 626L1027.08 581.675L1114.55 626L1204.38 581.675L1283.26 626L1379.33 581.675L1483.21 626L1596.46 581.675L1694.87 626L1779.23 581.675L1833.12 626L1866.71 581.675L1833.12 536.688L1866.71 475.823L1833.12 423.559L1866.71 355.417L1833.12 293.891L1866.71 231.703L1833.12 185.393L1866.71 133.129L1812.81 95.4192L1866.71 48.4476L1796.41 20L1694.87 48.4476L1596.46 20L1483.21 48.4476L1379.33 20L1283.26 48.4476L1204.38 20L1114.55 48.4476L1027.08 20L953.658 48.4476L875.553 20L810.726 48.4476L748.242 20H700.598L646.706 48.4476L682.634 95.4192L646.706 133.129L682.634 185.393L646.706 231.703L682.634 293.891L646.706 355.417L682.634 423.559L646.706 475.823L682.634 536.688L646.706 581.675Z" fill="#0B2760" stroke="#00810F" stroke-width="20"/>
<g id="Cuerpo Cobra">
<path d="M359.706 695L427.706 788.5V802H527.206L455.206 695L482.206 644.5L455.206 586L527.206 521.5L564.206 457.5L513.706 418.5L470.706 403L412.206 418.5L359.706 457.5L390.706 535L359.706 586L390.706 644.5L359.706 695Z" fill="#2D6A4F"/>
<path d="M759.206 714.5L675.206 802H759.206L860.206 623L737.706 681.5L759.206 714.5Z" fill="#2D6A4F"/>
</g>
<circle id="Escler&#195;&#179;ticaOjoIzq" cx="436.206" cy="467.5" r="22.5" fill="#D9D9D9"/>
<circle id="PupilaOjoIzq" cx="436.706" cy="469" r="11" fill="black"/>
<path id="Lengua" d="M521.706 559L455.706 521H473.206L524.706 550.5L514.206 548L521.706 559Z" fill="#FF0000" stroke="black"/>
<ellipse id="Escler&#195;&#179;ticaOjoDer" cx="500.206" cy="462.5" rx="22.5" ry="17.5" fill="#D9D9D9"/>
<circle id="PupilaOjoDer" cx="495.706" cy="458" r="11" fill="black"/>
<path id="SacoIzq" d="M392.206 575L360.206 587L390.206 643.5L418.206 637L392.206 575Z" fill="#24253A" stroke="black"/>
<path id="DobladoSacoIzq" d="M387.706 588.5L391.706 575.5L417.706 637.5L387.706 593.5L391.706 590.5L387.706 588.5Z" fill="#161521" stroke="#0F0E0E"/>
<path id="SacoDer" d="M432.206 570L454.706 586L481.706 644.5L432.206 635V570Z" fill="#24253A" stroke="black"/>
<path id="DobladoSacoDer" d="M440.206 582.5L432.206 570.5V635L440.206 587.5L436.706 585L440.206 582.5Z" fill="#161521" stroke="#161521"/>
<path id="Camisa" d="M399.706 569.5L392.206 575L418.706 636.5L431.206 634.5V569.5L422.206 565.5L416.206 575H407.206L399.706 569.5Z" fill="#D9D9D9" stroke="black"/>
<path id="NudoCorbata" d="M408.706 584L406.706 575.5H417.206L415.706 584H408.706Z" fill="#822121" stroke="#242787"/>
<path id="Corbata" d="M406.706 589L408.206 584H415.206L411.706 589L415.206 593.5L413.706 596.5L417.706 602L415.206 605.5L420.706 611V615.5L424.706 619L423.206 623.5L428.206 626L426.706 630L423.206 633.5L420.706 630V626L417.706 623.5V619L415.206 615.5V611L411.706 607V602L408.206 598.5L410.206 593.5L406.706 589Z" fill="#822121" stroke="black"/>
<path id="BocaSemiHabierta" d="M439.206 517.5L432.706 520L439.206 522.5L444.706 523.5L448.206 523.75L451.706 524H460.206H466.706L474.206 522.5L481.206 520L474.206 517.5L466.706 516H460.206H451.706L444.706 516.5L439.206 517.5Z" fill="black" stroke="black"/>
<g id="DientesBocaSemiAbierta">
<path d="M448.206 531.5L445.706 516.5L453.206 516L448.206 531.5Z" fill="#D9D9D9"/>
<path d="M463.706 532.5L460.206 516L468.706 516.5L463.706 532.5Z" fill="#D9D9D9"/>
<path d="M448.206 531.5L445.706 516.5L453.206 516L448.206 531.5Z" stroke="black"/>
<path d="M463.706 532.5L460.206 516L468.706 516.5L463.706 532.5Z" stroke="black"/>
</g>
<path id="BocaAbierta" d="M435.706 511L422.706 505.5V513.5L429.706 522.5L440.206 527.5L450.206 530H463.206L479.206 522.5L482.206 519.5L489.206 513.5L492.706 505.5L485.706 500.5L475.706 504L452.706 511H435.706Z" fill="black" stroke="black"/>
<path id="DienteDer" d="M477.706 520L463.706 508.1L477.706 503V520Z" fill="#D9D9D9" stroke="black"/>
<path id="DienteIzq" d="M440.342 524L436.706 511H444.706L440.342 524Z" fill="#D9D9D9" stroke="black"/>
<path id="Lentes" d="M397.706 453L373.706 448L358.706 457.5L362.206 463.5H397.706L406.206 490.5H455.706L462.206 463.5L471.706 464.5L478.206 484L525.206 482V466.5L558.206 468L563.706 457.5L556.206 453L523.706 457.5V442H471.706V455.5H460.706V442L400.706 439.5L397.706 453Z" stroke="#231D1D" stroke-width="3"/>
<path id="PeloBlanco" d="M521.206 404.5L563.706 456L515.706 420L469.206 404.5L411.206 420L383.206 442L360.206 456L375.206 434L383.206 420L386.706 412.5L389.706 404.5L396.206 401L419.206 396L441.706 390L466.706 387L490.206 390L515.706 401V415.5L521.206 404.5Z" fill="#B3B3B3"/>
<path id="PeloCachoGris" d="M412.206 417.5H386.206V414L389.706 407.5V404L396.206 401.5L404.706 398H412.206L426.206 394.5L467.206 404L412.206 417.5Z" fill="#8F8F8F"/>
<path id="LiniaCulebraEscritorio" d="M1924.71 810L1902.71 794L1880.71 810L1848.71 794L1822.21 810L1794.21 794L1766.21 810L1734.21 794L1707.71 810L1667.71 794L1645.71 810L1607.71 794L1579.21 810L1529.21 794H1511.21L1493.21 810L1456.71 794L1430.71 810L1398.71 794L1374.71 810L1338.21 794L1308.21 810L1272.21 794L1241.71 810L1189.71 794L1163.71 810L1145.71 794L1105.21 810L1077.21 794L1043.21 810L1000.71 794L966.706 810L918.706 794L886.206 810L850.206 794L824.206 810L798.206 794L763.706 810L743.706 794L713.706 810L681.706 794L645.206 810L603.206 794L571.206 810L542.706 794L506.706 810L460.706 794L416.206 810L382.206 794L346.206 810L313.706 794L283.706 810L251.706 794L223.706 810L193.206 794L165.206 810L133.206 794L101.206 810L78.7059 794L54.7059 810L34.7059 794L4.70587 810" stroke="#D84545" stroke-width="20"/>
<path id="MonitorEscritorio" d="M112.706 892.602L137.924 869.034L195.238 857L242.617 880.066L272.42 857L321.328 880.066L360.302 857L405.388 880.066L439.013 869.034L475.693 880.066L497.091 869.034L543.706 892.602L475.693 909.149L543.706 932.716L497.091 951.269L533.771 970.825L497.091 990.381L519.252 1009.94L487.156 1027.49L459.646 1016.46L418.38 1027.49L377.114 1016.46L341.961 1027.49L294.582 1016.46L254.844 1032L216.635 1016.46L184.539 1027.49L163.142 1016.46L137.924 1032L112.706 1016.46L137.924 996.398L112.706 970.825L137.924 951.269L112.706 932.716L137.924 909.149L112.706 892.602Z" fill="#0B2760" stroke="#00810F" stroke-width="10"/>
<path id="CulebravisaTexto" d="M208.233 898.637C208.166 898.535 208.047 898.434 207.878 898.332C207.742 898.23 207.573 898.146 207.37 898.078C207.167 898.01 206.964 897.993 206.761 898.027C206.591 898.027 206.456 898.095 206.354 898.23C206.253 898.4 206.067 899.043 205.796 900.16C205.559 901.243 205.305 902.598 205.034 904.223C204.763 905.848 204.526 907.659 204.323 909.656C204.12 911.654 204.018 913.634 204.018 915.598C204.018 917.02 204.069 918.509 204.171 920.066C204.272 921.59 204.391 922.995 204.526 924.281C204.695 925.568 204.882 926.634 205.085 927.48C205.322 928.293 205.559 928.699 205.796 928.699C206.033 928.733 206.354 928.479 206.761 927.938C207.167 927.396 207.556 926.786 207.929 926.109C208.301 925.398 208.639 924.721 208.944 924.078C209.283 923.401 209.503 922.944 209.604 922.707C209.74 922.335 209.926 921.928 210.163 921.488C210.4 921.014 210.637 920.591 210.874 920.219C211.111 919.812 211.348 919.491 211.585 919.254C211.822 918.983 212.025 918.848 212.194 918.848C212.397 918.848 212.567 919.051 212.702 919.457C212.871 919.863 212.99 920.354 213.057 920.93C213.159 921.471 213.227 922.047 213.261 922.656C213.294 923.232 213.311 923.706 213.311 924.078C213.311 924.755 213.176 925.602 212.905 926.617C212.668 927.633 212.346 928.615 211.94 929.562C211.568 930.51 211.145 931.323 210.671 932C210.231 932.677 209.807 932.999 209.401 932.965C208.995 932.931 208.335 932.694 207.421 932.254C206.541 931.814 205.626 931.306 204.679 930.73C203.731 930.155 202.867 929.579 202.089 929.004C201.31 928.428 200.853 927.971 200.718 927.633C200.548 927.328 200.294 926.6 199.956 925.449C199.651 924.264 199.33 922.842 198.991 921.184C198.652 919.525 198.348 917.697 198.077 915.699C197.84 913.702 197.721 911.688 197.721 909.656C197.721 907.625 197.738 905.628 197.772 903.664C197.806 901.667 197.874 899.889 197.975 898.332C198.111 896.775 198.314 895.522 198.585 894.574C198.856 893.592 199.228 893.068 199.702 893C200.65 892.898 201.682 892.966 202.8 893.203C203.917 893.406 205.034 893.728 206.151 894.168C207.268 894.608 208.335 895.116 209.35 895.691C210.4 896.233 211.331 896.809 212.143 897.418C212.956 897.993 213.599 898.552 214.073 899.094C214.581 899.635 214.852 900.092 214.886 900.465C214.919 901.04 214.852 901.684 214.682 902.395C214.513 903.105 214.31 903.799 214.073 904.477C213.836 905.12 213.582 905.712 213.311 906.254C213.074 906.762 212.888 907.117 212.753 907.32C212.583 907.557 212.38 907.811 212.143 908.082C211.906 908.353 211.652 908.59 211.382 908.793C211.145 908.996 210.891 909.148 210.62 909.25C210.383 909.318 210.163 909.267 209.96 909.098C209.824 908.996 209.689 908.674 209.554 908.133C209.452 907.591 209.333 906.948 209.198 906.203C209.096 905.458 208.995 904.663 208.893 903.816C208.792 902.936 208.69 902.124 208.589 901.379C208.521 900.634 208.453 900.008 208.386 899.5C208.318 898.992 208.267 898.704 208.233 898.637ZM227.886 904.832C227.953 904.934 228.055 905.408 228.19 906.254C228.326 907.1 228.461 908.15 228.596 909.402C228.766 910.655 228.918 912.009 229.054 913.465C229.223 914.921 229.375 916.309 229.511 917.629C229.68 918.949 229.815 920.134 229.917 921.184C230.018 922.233 230.103 922.944 230.171 923.316C230.272 923.926 230.391 924.603 230.526 925.348C230.662 926.059 230.78 926.753 230.882 927.43C230.983 928.073 231.051 928.632 231.085 929.105C231.152 929.579 231.136 929.867 231.034 929.969C230.966 930.07 230.695 930.104 230.221 930.07C229.748 930.003 229.223 929.901 228.647 929.766C228.106 929.596 227.581 929.41 227.073 929.207C226.599 928.97 226.294 928.75 226.159 928.547C226.024 928.378 225.888 928.124 225.753 927.785C225.651 927.447 225.516 926.854 225.346 926.008C224.974 926.516 224.568 927.057 224.128 927.633C223.721 928.174 223.315 928.682 222.909 929.156C222.503 929.596 222.13 929.952 221.792 930.223C221.453 930.493 221.199 930.629 221.03 930.629C220.759 930.629 220.353 930.358 219.811 929.816C219.27 929.241 218.728 928.598 218.186 927.887C217.645 927.176 217.154 926.499 216.714 925.855C216.274 925.212 216.037 924.789 216.003 924.586C215.935 924.383 215.901 923.824 215.901 922.91C215.935 921.996 215.969 920.98 216.003 919.863C216.07 918.712 216.138 917.578 216.206 916.461C216.274 915.31 216.341 914.396 216.409 913.719C216.477 913.042 216.544 912.297 216.612 911.484C216.714 910.638 216.815 909.859 216.917 909.148C217.018 908.404 217.103 907.76 217.171 907.219C217.272 906.677 217.357 906.355 217.425 906.254C217.492 906.152 217.679 906.102 217.983 906.102C218.322 906.068 218.66 906.085 218.999 906.152C219.371 906.186 219.71 906.271 220.014 906.406C220.319 906.508 220.522 906.643 220.624 906.812C220.692 906.948 220.725 907.388 220.725 908.133C220.759 908.844 220.776 909.724 220.776 910.773C220.776 911.789 220.776 912.906 220.776 914.125C220.776 915.31 220.759 916.427 220.725 917.477C220.725 918.492 220.708 919.372 220.675 920.117C220.675 920.828 220.675 921.251 220.675 921.387C220.675 921.658 220.827 922.182 221.132 922.961C221.47 923.74 221.809 924.484 222.147 925.195L224.788 922.047C224.754 921.438 224.72 920.659 224.686 919.711C224.686 918.763 224.669 917.764 224.636 916.715C224.602 915.665 224.568 914.599 224.534 913.516C224.5 912.432 224.483 911.451 224.483 910.57C224.483 909.69 224.483 908.962 224.483 908.387C224.483 907.811 224.5 907.473 224.534 907.371C224.636 907.168 224.839 906.897 225.143 906.559C225.448 906.22 225.787 905.898 226.159 905.594C226.531 905.289 226.87 905.052 227.175 904.883C227.513 904.714 227.75 904.697 227.886 904.832ZM237.331 931.695C237.094 931.763 236.823 931.678 236.518 931.441C236.214 931.204 235.909 930.917 235.604 930.578C235.333 930.206 235.096 929.816 234.893 929.41C234.69 929.004 234.555 928.665 234.487 928.395C234.25 925.415 234.047 922.758 233.878 920.422C233.742 918.052 233.624 915.953 233.522 914.125C233.421 912.297 233.336 910.723 233.268 909.402C233.235 908.048 233.218 906.897 233.218 905.949C233.184 903.749 233.218 902.225 233.319 901.379C233.421 900.77 233.692 900.16 234.132 899.551C234.606 898.941 235.096 898.417 235.604 897.977C236.146 897.536 236.637 897.198 237.077 896.961C237.551 896.724 237.856 896.656 237.991 896.758C238.126 896.859 238.228 897.435 238.296 898.484C238.363 899.5 238.414 900.837 238.448 902.496C238.482 904.155 238.482 906.017 238.448 908.082C238.448 910.147 238.414 912.263 238.346 914.43C238.313 916.596 238.262 918.712 238.194 920.777C238.126 922.842 238.042 924.688 237.94 926.312C237.839 927.904 237.737 929.19 237.636 930.172C237.534 931.154 237.432 931.661 237.331 931.695ZM246.065 917.324C246.607 917.121 247.216 916.901 247.893 916.664C248.604 916.393 249.281 916.156 249.925 915.953C250.568 915.716 251.143 915.513 251.651 915.344C252.159 915.174 252.531 915.039 252.768 914.938C252.735 914.565 252.684 914.142 252.616 913.668C252.582 913.16 252.531 912.686 252.464 912.246C252.396 911.772 252.311 911.366 252.21 911.027C252.108 910.689 252.007 910.486 251.905 910.418C251.634 910.316 251.177 910.232 250.534 910.164C249.925 910.062 249.281 910.079 248.604 910.215C247.961 910.35 247.369 910.604 246.827 910.977C246.285 911.349 245.981 911.941 245.913 912.754C245.845 913.296 245.828 913.973 245.862 914.785C245.896 915.598 245.964 916.444 246.065 917.324ZM257.085 918.137C257.051 918.204 256.645 918.34 255.866 918.543C255.087 918.746 254.156 918.966 253.073 919.203C251.99 919.406 250.839 919.626 249.62 919.863C248.401 920.066 247.352 920.236 246.471 920.371C246.641 921.725 246.844 922.944 247.081 924.027C247.318 925.077 247.521 925.737 247.69 926.008C247.86 926.245 248.08 926.465 248.35 926.668C248.587 926.837 248.875 927.007 249.214 927.176C249.586 927.311 250.026 927.413 250.534 927.48C250.906 927.582 251.262 927.447 251.6 927.074C251.871 926.736 252.108 926.143 252.311 925.297C252.548 924.451 252.667 923.113 252.667 921.285C253.716 921.116 254.529 921.014 255.104 920.98C255.714 920.947 256.154 920.947 256.425 920.98C256.763 921.014 256.966 921.065 257.034 921.133C257.068 921.234 257.068 921.488 257.034 921.895C257 922.301 256.916 922.809 256.78 923.418C256.679 923.993 256.543 924.637 256.374 925.348C256.238 926.025 256.069 926.685 255.866 927.328C255.663 927.938 255.443 928.496 255.206 929.004C254.969 929.478 254.715 929.816 254.444 930.02C253.632 930.629 252.616 930.934 251.397 930.934C250.179 930.9 248.977 930.73 247.792 930.426C246.607 930.087 245.541 929.698 244.593 929.258C243.645 928.784 243.052 928.395 242.815 928.09C242.646 927.887 242.494 927.379 242.358 926.566C242.223 925.72 242.104 924.704 242.003 923.52C241.935 922.335 241.884 921.031 241.85 919.609C241.817 918.188 241.833 916.799 241.901 915.445C242.003 914.091 242.138 912.839 242.307 911.688C242.511 910.536 242.781 909.605 243.12 908.895C243.628 907.879 244.457 907.049 245.608 906.406C246.759 905.763 247.978 905.323 249.264 905.086C250.551 904.849 251.77 904.815 252.921 904.984C254.106 905.154 254.986 905.526 255.561 906.102C255.9 906.44 256.205 907.117 256.475 908.133C256.746 909.115 256.916 910.316 256.983 911.738C256.983 911.874 257 912.263 257.034 912.906C257.068 913.549 257.085 914.243 257.085 914.988C257.119 915.699 257.136 916.376 257.136 917.02C257.136 917.663 257.119 918.035 257.085 918.137ZM272.624 905.137C272.962 905.34 273.301 905.712 273.639 906.254C274.012 906.762 274.333 907.371 274.604 908.082C274.909 908.793 275.146 909.555 275.315 910.367C275.485 911.146 275.569 911.891 275.569 912.602C275.569 913.109 275.501 913.82 275.366 914.734C275.264 915.615 275.112 916.596 274.909 917.68C274.706 918.729 274.486 919.829 274.249 920.98C274.012 922.098 273.775 923.13 273.538 924.078C273.335 925.026 273.149 925.839 272.979 926.516C272.81 927.159 272.692 927.548 272.624 927.684C272.455 928.09 272.302 928.445 272.167 928.75C272.065 929.021 271.93 929.224 271.761 929.359C271.388 929.63 270.914 929.833 270.339 929.969C269.763 930.07 269.171 930.138 268.561 930.172C267.952 930.206 267.36 930.206 266.784 930.172C266.242 930.104 265.819 930.02 265.514 929.918C265.379 929.884 265.227 929.85 265.057 929.816C264.922 929.749 264.77 929.681 264.6 929.613C264.262 930.189 263.873 930.714 263.432 931.188C262.992 931.628 262.586 931.814 262.214 931.746C262.078 931.712 261.926 931.154 261.757 930.07C261.621 928.987 261.469 927.565 261.3 925.805C261.13 924.01 260.961 921.979 260.792 919.711C260.623 917.443 260.47 915.124 260.335 912.754C260.199 910.35 260.081 907.997 259.979 905.695C259.878 903.393 259.793 901.345 259.725 899.551C259.692 897.723 259.692 896.233 259.725 895.082C259.759 893.897 259.844 893.254 259.979 893.152C260.115 893.051 260.419 893.135 260.893 893.406C261.401 893.643 261.943 894.016 262.518 894.523C263.094 894.997 263.619 895.573 264.093 896.25C264.6 896.927 264.939 897.621 265.108 898.332C265.21 898.874 265.277 899.805 265.311 901.125C265.379 902.445 265.413 904.003 265.413 905.797C266.902 905.221 268.274 904.849 269.526 904.68C270.813 904.51 271.845 904.663 272.624 905.137ZM270.44 912.602C270.44 912.06 270.356 911.535 270.186 911.027C270.017 910.486 269.814 910.029 269.577 909.656C269.34 909.25 269.086 908.945 268.815 908.742C268.544 908.539 268.307 908.471 268.104 908.539C267.732 908.607 267.376 908.708 267.038 908.844C266.699 908.945 266.412 909.047 266.175 909.148C265.87 909.284 265.616 909.402 265.413 909.504C265.379 911.501 265.328 913.533 265.261 915.598C265.227 917.663 265.21 919.592 265.21 921.387C265.21 922.267 265.227 923.046 265.261 923.723C265.294 924.366 265.311 924.772 265.311 924.941C265.413 925.754 265.633 926.329 265.971 926.668C266.073 926.736 266.225 926.837 266.429 926.973C266.666 927.074 266.902 927.176 267.139 927.277C267.41 927.345 267.664 927.396 267.901 927.43C268.138 927.43 268.341 927.362 268.511 927.227C268.544 927.193 268.612 926.82 268.714 926.109C268.849 925.365 268.985 924.467 269.12 923.418C269.255 922.368 269.391 921.234 269.526 920.016C269.695 918.763 269.848 917.612 269.983 916.562C270.119 915.479 270.22 914.565 270.288 913.82C270.389 913.076 270.44 912.669 270.44 912.602ZM289.077 904.324C289.348 904.493 289.602 904.832 289.839 905.34C290.11 905.814 290.346 906.372 290.55 907.016C290.787 907.625 290.973 908.285 291.108 908.996C291.277 909.707 291.413 910.367 291.514 910.977C291.65 911.586 291.735 912.111 291.768 912.551C291.802 912.957 291.802 913.211 291.768 913.312C291.701 913.448 291.498 913.583 291.159 913.719C290.854 913.854 290.397 914.007 289.788 914.176C289.179 914.345 288.332 914.531 287.249 914.734C287.181 912.872 287.046 911.467 286.843 910.52C286.639 909.538 286.419 908.844 286.182 908.438C285.912 907.964 285.624 907.727 285.319 907.727C285.014 907.862 284.744 908.031 284.507 908.234C284.27 908.404 284.067 908.59 283.897 908.793C283.694 909.03 283.508 909.284 283.339 909.555C283.271 909.656 283.203 909.893 283.136 910.266C283.068 910.638 283 911.197 282.932 911.941C282.932 912.178 282.916 912.669 282.882 913.414C282.882 914.159 282.865 915.022 282.831 916.004C282.831 916.986 282.814 918.018 282.78 919.102C282.78 920.185 282.763 921.201 282.729 922.148C282.729 923.062 282.712 923.841 282.679 924.484C282.679 925.128 282.662 925.5 282.628 925.602C282.56 925.771 282.391 926.008 282.12 926.312C281.849 926.617 281.544 926.905 281.206 927.176C280.867 927.413 280.546 927.616 280.241 927.785C279.936 927.921 279.733 927.904 279.632 927.734C279.53 927.633 279.429 927.193 279.327 926.414C279.225 925.635 279.107 924.688 278.971 923.57C278.87 922.419 278.751 921.167 278.616 919.812C278.481 918.458 278.362 917.155 278.261 915.902C278.159 914.65 278.074 913.533 278.007 912.551C277.939 911.535 277.888 910.807 277.854 910.367C277.82 909.724 277.787 909.013 277.753 908.234C277.719 907.456 277.685 906.728 277.651 906.051C277.651 905.34 277.651 904.73 277.651 904.223C277.685 903.681 277.753 903.359 277.854 903.258C277.922 903.156 278.142 903.139 278.514 903.207C278.921 903.241 279.344 903.342 279.784 903.512C280.258 903.647 280.698 903.833 281.104 904.07C281.511 904.307 281.781 904.527 281.917 904.73C282.018 904.9 282.12 905.154 282.221 905.492C282.865 905.154 283.474 904.849 284.05 904.578C284.659 904.273 285.235 904.053 285.776 903.918C286.352 903.783 286.91 903.749 287.452 903.816C287.994 903.85 288.535 904.02 289.077 904.324ZM306.8 905.289C307.003 905.526 307.189 905.78 307.358 906.051C307.527 906.288 307.68 906.626 307.815 907.066C307.951 907.473 308.052 908.014 308.12 908.691C308.221 909.368 308.272 910.249 308.272 911.332C308.272 913.059 308.221 914.802 308.12 916.562C308.052 918.289 307.985 919.812 307.917 921.133C307.883 922.318 307.849 923.418 307.815 924.434C307.781 925.449 307.748 926.346 307.714 927.125C307.68 927.87 307.629 928.462 307.561 928.902C307.527 929.342 307.494 929.579 307.46 929.613C307.324 929.715 307.104 929.681 306.8 929.512C306.529 929.309 306.224 929.055 305.886 928.75C305.581 928.445 305.293 928.124 305.022 927.785C304.751 927.447 304.582 927.176 304.514 926.973C304.514 926.803 304.464 926.312 304.362 925.5C303.55 925.974 302.652 926.312 301.671 926.516C300.689 926.685 299.707 926.753 298.725 926.719C297.777 926.651 296.897 926.465 296.085 926.16C295.272 925.855 294.663 925.449 294.257 924.941C294.087 924.738 293.935 924.434 293.8 924.027C293.698 923.621 293.596 923.164 293.495 922.656C293.427 922.115 293.36 921.556 293.292 920.98C293.224 920.371 293.173 919.812 293.139 919.305C293.072 917.984 293.241 916.85 293.647 915.902C294.054 914.921 294.798 914.193 295.882 913.719C296.356 913.516 296.982 913.414 297.761 913.414C298.573 913.38 299.369 913.414 300.147 913.516C300.96 913.583 301.688 913.685 302.331 913.82C302.974 913.922 303.38 914.007 303.55 914.074C303.414 912.348 303.313 910.858 303.245 909.605C303.177 908.319 303.042 907.49 302.839 907.117C302.669 906.88 302.466 906.643 302.229 906.406C302.026 906.237 301.755 906.051 301.417 905.848C301.078 905.645 300.672 905.492 300.198 905.391C299.826 905.323 299.487 905.475 299.182 905.848C298.912 906.186 298.658 906.796 298.421 907.676C298.218 908.522 298.099 909.826 298.065 911.586C296.88 911.62 295.966 911.62 295.323 911.586C294.714 911.518 294.257 911.451 293.952 911.383C293.58 911.315 293.36 911.23 293.292 911.129C293.224 910.993 293.258 910.503 293.393 909.656C293.529 908.776 293.715 907.828 293.952 906.812C294.223 905.797 294.527 904.832 294.866 903.918C295.238 903.004 295.628 902.428 296.034 902.191C296.846 901.717 297.811 901.548 298.929 901.684C300.08 901.819 301.197 902.107 302.28 902.547C303.363 902.987 304.328 903.478 305.175 904.02C306.021 904.561 306.563 904.984 306.8 905.289ZM303.651 920.117C303.651 919.948 303.668 919.728 303.702 919.457C303.736 919.152 303.753 918.848 303.753 918.543C303.753 918.238 303.736 917.951 303.702 917.68C303.702 917.409 303.668 917.206 303.6 917.07C303.499 916.867 303.194 916.698 302.686 916.562C302.212 916.427 301.671 916.342 301.061 916.309C300.452 916.241 299.876 916.224 299.335 916.258C298.793 916.258 298.421 916.326 298.218 916.461C297.947 916.63 297.744 916.867 297.608 917.172C297.507 917.477 297.439 917.951 297.405 918.594C297.405 918.898 297.422 919.22 297.456 919.559C297.49 919.897 297.524 920.236 297.557 920.574C297.625 920.879 297.693 921.15 297.761 921.387C297.862 921.624 297.964 921.776 298.065 921.844C298.302 922.013 298.708 922.165 299.284 922.301C299.893 922.402 300.503 922.436 301.112 922.402C301.721 922.335 302.28 922.132 302.788 921.793C303.296 921.454 303.583 920.896 303.651 920.117ZM314.671 925.652C314.197 923.926 313.672 921.895 313.096 919.559C312.623 917.561 312.047 915.141 311.37 912.297C310.727 909.419 310.033 906.135 309.288 902.445C309.288 902.208 309.44 901.921 309.745 901.582C310.016 901.21 310.354 900.871 310.761 900.566C311.167 900.228 311.59 899.957 312.03 899.754C312.47 899.517 312.86 899.398 313.198 899.398C313.333 899.602 313.57 900.499 313.909 902.09C314.044 902.767 314.197 903.63 314.366 904.68C314.569 905.695 314.789 906.965 315.026 908.488C315.263 910.012 315.517 911.806 315.788 913.871C316.093 915.902 316.431 918.255 316.804 920.93C317.074 919.102 317.328 917.375 317.565 915.75C317.836 914.125 318.073 912.686 318.276 911.434C318.513 909.978 318.733 908.624 318.936 907.371C319.038 906.592 319.156 905.78 319.292 904.934C319.427 904.053 319.563 903.258 319.698 902.547C319.867 901.836 320.037 901.243 320.206 900.77C320.409 900.262 320.612 900.008 320.815 900.008C321.018 900.008 321.323 900.059 321.729 900.16C322.136 900.228 322.542 900.329 322.948 900.465C323.388 900.6 323.777 900.77 324.116 900.973C324.455 901.142 324.624 901.328 324.624 901.531C324.624 901.633 324.522 902.141 324.319 903.055C324.116 903.935 323.845 905.069 323.507 906.457C323.168 907.845 322.779 909.419 322.339 911.18C321.899 912.906 321.442 914.667 320.968 916.461C320.527 918.255 320.07 920.016 319.596 921.742C319.123 923.469 318.682 925.009 318.276 926.363C317.904 927.684 317.582 928.767 317.311 929.613C317.041 930.426 316.854 930.832 316.753 930.832C316.651 930.832 316.363 930.375 315.889 929.461C315.449 928.513 315.043 927.243 314.671 925.652ZM330.464 910.164C330.531 910.333 330.565 910.875 330.565 911.789C330.599 912.669 330.599 913.753 330.565 915.039C330.565 916.292 330.531 917.646 330.464 919.102C330.396 920.523 330.311 921.878 330.21 923.164C330.142 924.417 330.057 925.5 329.956 926.414C329.854 927.294 329.753 927.819 329.651 927.988C329.346 928.462 328.889 928.767 328.28 928.902C327.671 929.004 327.231 929.021 326.96 928.953C326.824 928.953 326.672 928.564 326.503 927.785C326.367 927.007 326.232 926.025 326.096 924.84C325.961 923.655 325.843 922.368 325.741 920.98C325.639 919.592 325.555 918.272 325.487 917.02C325.419 915.733 325.386 914.616 325.386 913.668C325.386 912.72 325.419 912.111 325.487 911.84C325.589 911.4 325.876 911.01 326.35 910.672C326.858 910.333 327.383 910.079 327.925 909.91C328.5 909.741 329.025 909.673 329.499 909.707C330.007 909.707 330.328 909.859 330.464 910.164ZM330.718 901.938C330.853 902.208 330.904 902.581 330.87 903.055C330.87 903.529 330.819 904.02 330.718 904.527C330.616 905.035 330.481 905.526 330.311 906C330.142 906.474 329.973 906.846 329.804 907.117C329.465 907.591 328.957 907.896 328.28 908.031C327.637 908.133 327.163 908.15 326.858 908.082C326.621 908.048 326.384 907.896 326.147 907.625C325.91 907.32 325.707 906.965 325.538 906.559C325.369 906.118 325.25 905.645 325.182 905.137C325.115 904.629 325.132 904.155 325.233 903.715C325.335 903.275 325.656 902.885 326.198 902.547C326.74 902.174 327.315 901.904 327.925 901.734C328.534 901.531 329.11 901.447 329.651 901.48C330.193 901.48 330.548 901.633 330.718 901.938ZM349.151 907.016C349.185 907.388 349.117 907.964 348.948 908.742C348.813 909.521 348.593 910.299 348.288 911.078C348.017 911.857 347.645 912.534 347.171 913.109C346.731 913.685 346.223 913.973 345.647 913.973C345.241 913.973 344.902 913.651 344.632 913.008C344.395 912.365 344.208 911.62 344.073 910.773C343.971 909.893 343.887 909.03 343.819 908.184C343.751 907.337 343.684 906.745 343.616 906.406C343.514 906.237 343.311 906.085 343.007 905.949C342.736 905.78 342.465 905.695 342.194 905.695C341.923 905.695 341.619 905.915 341.28 906.355C340.942 906.796 340.603 907.303 340.264 907.879C339.96 908.454 339.689 909.03 339.452 909.605C339.249 910.181 339.164 910.604 339.198 910.875C339.198 911.078 339.418 911.434 339.858 911.941C340.298 912.449 340.84 913.059 341.483 913.77C342.16 914.447 342.871 915.191 343.616 916.004C344.395 916.783 345.106 917.578 345.749 918.391C346.392 919.169 346.934 919.914 347.374 920.625C347.848 921.336 348.102 921.945 348.136 922.453C348.169 923.062 348 923.841 347.628 924.789C347.289 925.737 346.849 926.651 346.307 927.531C345.766 928.411 345.19 929.173 344.581 929.816C343.971 930.46 343.43 930.798 342.956 930.832C342.482 930.866 341.788 930.612 340.874 930.07C339.994 929.495 339.096 928.835 338.182 928.09C337.302 927.311 336.507 926.549 335.796 925.805C335.119 925.06 334.729 924.518 334.628 924.18C334.526 923.875 334.458 923.469 334.425 922.961C334.425 922.453 334.442 921.945 334.475 921.438C334.543 920.93 334.645 920.507 334.78 920.168C334.916 919.796 335.085 919.609 335.288 919.609C335.491 919.609 335.897 919.965 336.507 920.676C337.116 921.353 337.776 922.132 338.487 923.012C339.198 923.858 339.892 924.637 340.569 925.348C341.246 926.025 341.737 926.363 342.042 926.363C342.211 926.363 342.397 926.245 342.6 926.008C342.804 925.737 342.99 925.432 343.159 925.094C343.328 924.755 343.464 924.417 343.565 924.078C343.701 923.706 343.768 923.418 343.768 923.215C343.735 922.91 343.464 922.47 342.956 921.895C342.448 921.319 341.805 920.676 341.026 919.965C340.248 919.254 339.401 918.509 338.487 917.73C337.573 916.918 336.727 916.156 335.948 915.445C335.169 914.734 334.526 914.091 334.018 913.516C333.511 912.94 333.24 912.5 333.206 912.195C333.172 911.891 333.274 911.417 333.511 910.773C333.748 910.096 334.052 909.368 334.425 908.59C334.797 907.777 335.22 906.948 335.694 906.102C336.202 905.255 336.71 904.477 337.218 903.766C337.725 903.055 338.216 902.479 338.69 902.039C339.198 901.565 339.638 901.328 340.011 901.328C340.755 901.328 341.636 901.531 342.651 901.938C343.701 902.344 344.699 902.852 345.647 903.461C346.595 904.036 347.408 904.646 348.085 905.289C348.762 905.932 349.117 906.508 349.151 907.016ZM364.386 905.289C364.589 905.526 364.775 905.78 364.944 906.051C365.113 906.288 365.266 906.626 365.401 907.066C365.537 907.473 365.638 908.014 365.706 908.691C365.807 909.368 365.858 910.249 365.858 911.332C365.858 913.059 365.807 914.802 365.706 916.562C365.638 918.289 365.57 919.812 365.503 921.133C365.469 922.318 365.435 923.418 365.401 924.434C365.367 925.449 365.333 926.346 365.3 927.125C365.266 927.87 365.215 928.462 365.147 928.902C365.113 929.342 365.08 929.579 365.046 929.613C364.91 929.715 364.69 929.681 364.386 929.512C364.115 929.309 363.81 929.055 363.471 928.75C363.167 928.445 362.879 928.124 362.608 927.785C362.337 927.447 362.168 927.176 362.1 926.973C362.1 926.803 362.05 926.312 361.948 925.5C361.136 925.974 360.238 926.312 359.257 926.516C358.275 926.685 357.293 926.753 356.311 926.719C355.363 926.651 354.483 926.465 353.671 926.16C352.858 925.855 352.249 925.449 351.843 924.941C351.673 924.738 351.521 924.434 351.386 924.027C351.284 923.621 351.182 923.164 351.081 922.656C351.013 922.115 350.945 921.556 350.878 920.98C350.81 920.371 350.759 919.812 350.725 919.305C350.658 917.984 350.827 916.85 351.233 915.902C351.639 914.921 352.384 914.193 353.468 913.719C353.942 913.516 354.568 913.414 355.346 913.414C356.159 913.38 356.955 913.414 357.733 913.516C358.546 913.583 359.274 913.685 359.917 913.82C360.56 913.922 360.966 914.007 361.136 914.074C361 912.348 360.899 910.858 360.831 909.605C360.763 908.319 360.628 907.49 360.425 907.117C360.255 906.88 360.052 906.643 359.815 906.406C359.612 906.237 359.341 906.051 359.003 905.848C358.664 905.645 358.258 905.492 357.784 905.391C357.412 905.323 357.073 905.475 356.768 905.848C356.498 906.186 356.244 906.796 356.007 907.676C355.804 908.522 355.685 909.826 355.651 911.586C354.466 911.62 353.552 911.62 352.909 911.586C352.3 911.518 351.843 911.451 351.538 911.383C351.166 911.315 350.945 911.23 350.878 911.129C350.81 910.993 350.844 910.503 350.979 909.656C351.115 908.776 351.301 907.828 351.538 906.812C351.809 905.797 352.113 904.832 352.452 903.918C352.824 903.004 353.214 902.428 353.62 902.191C354.432 901.717 355.397 901.548 356.514 901.684C357.666 901.819 358.783 902.107 359.866 902.547C360.949 902.987 361.914 903.478 362.761 904.02C363.607 904.561 364.149 904.984 364.386 905.289ZM361.237 920.117C361.237 919.948 361.254 919.728 361.288 919.457C361.322 919.152 361.339 918.848 361.339 918.543C361.339 918.238 361.322 917.951 361.288 917.68C361.288 917.409 361.254 917.206 361.186 917.07C361.085 916.867 360.78 916.698 360.272 916.562C359.798 916.427 359.257 916.342 358.647 916.309C358.038 916.241 357.462 916.224 356.921 916.258C356.379 916.258 356.007 916.326 355.804 916.461C355.533 916.63 355.33 916.867 355.194 917.172C355.093 917.477 355.025 917.951 354.991 918.594C354.991 918.898 355.008 919.22 355.042 919.559C355.076 919.897 355.11 920.236 355.143 920.574C355.211 920.879 355.279 921.15 355.346 921.387C355.448 921.624 355.55 921.776 355.651 921.844C355.888 922.013 356.294 922.165 356.87 922.301C357.479 922.402 358.089 922.436 358.698 922.402C359.307 922.335 359.866 922.132 360.374 921.793C360.882 921.454 361.169 920.896 361.237 920.117Z" fill="white"/>
<path id="En vivo texto" d="M169.52 970.213C169.442 970.311 168.964 970.32 168.085 970.242C167.206 970.164 165.819 970.037 163.925 969.861C163.925 970.506 163.925 971.297 163.925 972.234C163.944 973.172 163.944 974.178 163.925 975.252C165.389 975.389 166.532 975.516 167.352 975.633C168.173 975.75 168.602 975.828 168.641 975.867C168.72 975.945 168.749 976.111 168.729 976.365C168.71 976.6 168.661 976.863 168.583 977.156C168.505 977.449 168.407 977.732 168.29 978.006C168.173 978.26 168.055 978.426 167.938 978.504C167.841 978.543 167.45 978.602 166.766 978.68C166.102 978.738 165.155 978.797 163.925 978.855C163.925 979.695 163.915 980.525 163.895 981.346C163.895 982.166 163.886 982.918 163.866 983.602C165.761 983.621 167.138 983.66 167.997 983.719C168.876 983.758 169.354 983.816 169.432 983.895C169.511 983.992 169.511 984.178 169.432 984.451C169.374 984.725 169.266 985.018 169.11 985.33C168.973 985.623 168.817 985.916 168.641 986.209C168.485 986.502 168.358 986.707 168.261 986.824C168.221 986.863 167.987 986.883 167.557 986.883C167.128 986.863 166.649 986.834 166.122 986.795C165.595 986.756 165.087 986.717 164.598 986.678C164.11 986.619 163.788 986.57 163.632 986.531C163.339 986.434 163.026 986.277 162.694 986.062C162.362 985.828 162.098 985.535 161.903 985.184C161.864 985.086 161.796 984.764 161.698 984.217C161.62 983.65 161.532 982.938 161.434 982.078C161.337 981.219 161.239 980.252 161.141 979.178C161.044 978.104 160.946 977.01 160.848 975.896C160.751 974.783 160.663 973.689 160.585 972.615C160.507 971.541 160.438 970.574 160.38 969.715C160.341 968.836 160.321 968.113 160.321 967.547C160.321 966.961 160.35 966.609 160.409 966.492C160.468 966.336 160.741 966.219 161.229 966.141C161.718 966.062 162.304 966.014 162.987 965.994C163.671 965.955 164.403 965.945 165.184 965.965C165.985 965.984 166.727 966.023 167.411 966.082C168.095 966.121 168.671 966.18 169.139 966.258C169.608 966.316 169.872 966.375 169.93 966.434C170.009 966.531 170.048 966.756 170.048 967.107C170.067 967.459 170.048 967.85 169.989 968.279C169.95 968.689 169.882 969.09 169.784 969.48C169.706 969.852 169.618 970.096 169.52 970.213ZM181.766 966.463C181.805 966.541 181.825 966.814 181.825 967.283C181.845 967.752 181.845 968.318 181.825 968.982C181.825 969.646 181.805 970.359 181.766 971.121C181.727 971.863 181.679 972.566 181.62 973.23C181.503 974.715 181.366 976.18 181.21 977.625C181.054 979.07 180.897 980.369 180.741 981.521C180.604 982.674 180.468 983.621 180.331 984.363C180.214 985.086 180.145 985.486 180.126 985.564C180.087 985.662 179.999 985.809 179.862 986.004C179.725 986.199 179.579 986.395 179.423 986.59C179.266 986.766 179.11 986.922 178.954 987.059C178.817 987.195 178.71 987.264 178.632 987.264C178.475 987.127 178.192 986.59 177.782 985.652C177.606 985.242 177.391 984.734 177.138 984.129C176.884 983.504 176.591 982.742 176.259 981.844C175.927 980.945 175.536 979.891 175.087 978.68C174.657 977.449 174.169 976.023 173.622 974.402C173.739 976.004 173.837 977.41 173.915 978.621C173.993 979.832 174.052 980.887 174.091 981.785C174.149 982.684 174.188 983.445 174.208 984.07C174.227 984.676 174.237 985.184 174.237 985.594C174.237 986.531 174.208 987.068 174.149 987.205C173.954 987.205 173.739 987.117 173.505 986.941C173.29 986.746 173.085 986.521 172.889 986.268C172.694 985.994 172.518 985.73 172.362 985.477C172.225 985.223 172.147 985.037 172.128 984.92C172.108 984.842 172.05 984.48 171.952 983.836C171.854 983.191 171.737 982.371 171.6 981.375C171.483 980.359 171.346 979.227 171.19 977.977C171.054 976.707 170.917 975.418 170.78 974.109C170.663 972.801 170.565 971.531 170.487 970.301C170.409 969.051 170.37 967.938 170.37 966.961C170.37 966.805 170.565 966.6 170.956 966.346C171.346 966.072 171.786 965.818 172.274 965.584C172.782 965.33 173.251 965.115 173.68 964.939C174.11 964.744 174.374 964.646 174.471 964.646C174.55 964.646 174.628 964.871 174.706 965.32C174.804 965.77 174.901 966.336 174.999 967.02C175.116 967.703 175.243 968.465 175.38 969.305C175.536 970.145 175.702 970.945 175.878 971.707C176.034 972.527 176.229 973.455 176.464 974.49C176.659 975.369 176.903 976.424 177.196 977.654C177.509 978.885 177.87 980.252 178.28 981.756C178.28 980.701 178.28 979.578 178.28 978.387C178.3 977.195 178.319 976.014 178.339 974.842C178.358 973.67 178.378 972.547 178.397 971.473C178.436 970.379 178.466 969.412 178.485 968.572C178.524 967.732 178.554 967.059 178.573 966.551C178.612 966.043 178.641 965.77 178.661 965.73C178.72 965.652 178.905 965.633 179.218 965.672C179.53 965.691 179.872 965.75 180.243 965.848C180.614 965.926 180.946 966.033 181.239 966.17C181.552 966.287 181.727 966.385 181.766 966.463ZM192.05 984.188C191.679 982.918 191.278 981.424 190.848 979.705C190.477 978.24 190.048 976.453 189.559 974.344C189.071 972.234 188.554 969.812 188.007 967.078C188.007 966.883 188.114 966.658 188.329 966.404C188.544 966.131 188.798 965.877 189.091 965.643C189.403 965.408 189.725 965.203 190.057 965.027C190.389 964.852 190.673 964.764 190.907 964.764C191.044 964.92 191.229 965.584 191.464 966.756C191.561 967.264 191.679 967.898 191.815 968.66C191.971 969.422 192.138 970.369 192.313 971.502C192.489 972.615 192.684 973.924 192.899 975.428C193.114 976.932 193.358 978.68 193.632 980.672C193.827 979.324 194.022 978.055 194.218 976.863C194.413 975.652 194.589 974.578 194.745 973.641C194.94 972.566 195.116 971.57 195.272 970.652C195.35 970.086 195.438 969.49 195.536 968.865C195.653 968.221 195.77 967.635 195.888 967.107C196.005 966.58 196.122 966.141 196.239 965.789C196.376 965.438 196.522 965.262 196.679 965.262C196.815 965.242 197.04 965.262 197.352 965.32C197.684 965.379 198.007 965.467 198.319 965.584C198.632 965.682 198.905 965.799 199.139 965.936C199.393 966.072 199.52 966.209 199.52 966.346C199.52 966.424 199.442 966.795 199.286 967.459C199.149 968.123 198.944 968.973 198.671 970.008C198.417 971.023 198.124 972.176 197.792 973.465C197.479 974.754 197.138 976.072 196.766 977.42C196.415 978.748 196.063 980.047 195.712 981.316C195.36 982.586 195.038 983.719 194.745 984.715C194.452 985.691 194.198 986.482 193.983 987.088C193.788 987.693 193.651 987.996 193.573 987.996C193.495 987.996 193.29 987.654 192.958 986.971C192.626 986.268 192.323 985.34 192.05 984.188ZM207.079 968.777C206.747 968.797 206.415 968.807 206.083 968.807C205.77 968.787 205.477 968.777 205.204 968.777C204.891 968.777 204.598 968.768 204.325 968.748C204.364 969.783 204.374 970.994 204.354 972.381C204.354 973.748 204.335 975.154 204.296 976.6C204.276 978.045 204.237 979.461 204.179 980.848C204.139 982.215 204.091 983.426 204.032 984.48C204.774 984.461 205.429 984.461 205.995 984.48C206.561 984.5 206.864 984.529 206.903 984.568C206.942 984.627 206.942 984.822 206.903 985.154C206.864 985.467 206.805 985.818 206.727 986.209C206.649 986.58 206.571 986.922 206.493 987.234C206.415 987.566 206.356 987.771 206.317 987.85C205.77 987.869 205.263 987.869 204.794 987.85C204.345 987.85 203.954 987.83 203.622 987.791C203.231 987.771 202.88 987.742 202.567 987.703C202.255 987.645 201.923 987.576 201.571 987.498C201.278 987.42 200.936 987.322 200.546 987.205C200.175 987.088 199.794 986.941 199.403 986.766C199.325 986.727 199.227 986.619 199.11 986.443C199.013 986.268 198.905 986.082 198.788 985.887C198.69 985.672 198.612 985.467 198.554 985.271C198.475 985.076 198.436 984.939 198.436 984.861C198.436 984.842 198.524 984.822 198.7 984.803C198.876 984.764 199.12 984.734 199.432 984.715C199.745 984.676 200.096 984.646 200.487 984.627C200.878 984.588 201.298 984.559 201.747 984.539C201.708 983.973 201.649 983.23 201.571 982.312C201.513 981.375 201.444 980.369 201.366 979.295C201.307 978.201 201.239 977.088 201.161 975.955C201.102 974.803 201.054 973.738 201.014 972.762C200.975 971.766 200.956 970.896 200.956 970.154C200.956 969.412 200.985 968.895 201.044 968.602C201.063 968.562 201.073 968.533 201.073 968.514C201.073 968.475 201.083 968.436 201.102 968.396L200.282 968.191C200.048 968.133 199.794 968.064 199.52 967.986C199.247 967.908 198.973 967.82 198.7 967.723C198.622 967.684 198.524 967.576 198.407 967.4C198.27 967.225 198.143 967.029 198.026 966.814C197.889 966.6 197.782 966.404 197.704 966.229C197.606 966.033 197.557 965.896 197.557 965.818C197.557 965.779 197.811 965.74 198.319 965.701C198.807 965.643 199.423 965.594 200.165 965.555C200.907 965.516 201.708 965.486 202.567 965.467C203.446 965.447 204.257 965.438 204.999 965.438C205.761 965.438 206.395 965.447 206.903 965.467C207.43 965.467 207.714 965.486 207.753 965.525C207.811 965.584 207.811 965.779 207.753 966.111C207.714 966.424 207.645 966.775 207.548 967.166C207.47 967.537 207.382 967.889 207.284 968.221C207.206 968.533 207.138 968.719 207.079 968.777ZM211.093 984.188C210.721 982.918 210.321 981.424 209.891 979.705C209.52 978.24 209.091 976.453 208.602 974.344C208.114 972.234 207.596 969.812 207.05 967.078C207.05 966.883 207.157 966.658 207.372 966.404C207.587 966.131 207.841 965.877 208.134 965.643C208.446 965.408 208.768 965.203 209.1 965.027C209.432 964.852 209.716 964.764 209.95 964.764C210.087 964.92 210.272 965.584 210.507 966.756C210.604 967.264 210.721 967.898 210.858 968.66C211.014 969.422 211.18 970.369 211.356 971.502C211.532 972.615 211.727 973.924 211.942 975.428C212.157 976.932 212.401 978.68 212.675 980.672C212.87 979.324 213.065 978.055 213.261 976.863C213.456 975.652 213.632 974.578 213.788 973.641C213.983 972.566 214.159 971.57 214.315 970.652C214.393 970.086 214.481 969.49 214.579 968.865C214.696 968.221 214.813 967.635 214.93 967.107C215.048 966.58 215.165 966.141 215.282 965.789C215.419 965.438 215.565 965.262 215.721 965.262C215.858 965.242 216.083 965.262 216.395 965.32C216.727 965.379 217.05 965.467 217.362 965.584C217.675 965.682 217.948 965.799 218.182 965.936C218.436 966.072 218.563 966.209 218.563 966.346C218.563 966.424 218.485 966.795 218.329 967.459C218.192 968.123 217.987 968.973 217.714 970.008C217.46 971.023 217.167 972.176 216.835 973.465C216.522 974.754 216.18 976.072 215.809 977.42C215.458 978.748 215.106 980.047 214.755 981.316C214.403 982.586 214.081 983.719 213.788 984.715C213.495 985.691 213.241 986.482 213.026 987.088C212.831 987.693 212.694 987.996 212.616 987.996C212.538 987.996 212.333 987.654 212.001 986.971C211.669 986.268 211.366 985.34 211.093 984.188ZM219.296 968.133C219.393 967.957 219.598 967.732 219.911 967.459C220.223 967.166 220.595 966.873 221.024 966.58C221.473 966.287 221.952 966.023 222.46 965.789C222.968 965.535 223.475 965.369 223.983 965.291C224.511 965.193 224.999 965.213 225.448 965.35C225.917 965.467 226.317 965.74 226.649 966.17C226.825 966.385 226.991 966.814 227.147 967.459C227.304 968.104 227.45 968.885 227.587 969.803C227.743 970.701 227.88 971.707 227.997 972.82C228.114 973.914 228.212 975.037 228.29 976.189C228.368 977.322 228.417 978.445 228.436 979.559C228.475 980.652 228.475 981.668 228.436 982.605C228.417 983.523 228.358 984.314 228.261 984.979C228.182 985.623 228.055 986.072 227.88 986.326C227.528 986.834 226.981 987.176 226.239 987.352C225.497 987.527 224.716 987.527 223.895 987.352C223.075 987.195 222.294 986.863 221.552 986.355C220.809 985.848 220.263 985.164 219.911 984.305C219.677 983.738 219.481 982.967 219.325 981.99C219.188 981.014 219.081 979.959 219.003 978.826C218.925 977.674 218.876 976.502 218.856 975.311C218.856 974.119 218.866 973.025 218.886 972.029C218.925 971.014 218.973 970.154 219.032 969.451C219.11 968.748 219.198 968.309 219.296 968.133ZM225.038 982.986C225.155 982.869 225.233 982.557 225.272 982.049C225.331 981.521 225.36 980.906 225.36 980.203C225.38 979.48 225.38 978.719 225.36 977.918C225.36 977.117 225.36 976.375 225.36 975.691C225.36 973.953 225.302 972.605 225.184 971.648C225.067 970.691 224.93 969.979 224.774 969.51C224.598 968.963 224.403 968.621 224.188 968.484C223.895 968.543 223.651 968.641 223.456 968.777C223.261 968.895 223.104 969.031 222.987 969.188C222.85 969.363 222.743 969.549 222.665 969.744C222.606 969.92 222.538 970.262 222.46 970.77C222.401 971.277 222.343 971.883 222.284 972.586C222.225 973.27 222.167 974.021 222.108 974.842C222.069 975.643 222.03 976.434 221.991 977.215C221.971 977.996 221.952 978.738 221.932 979.441C221.932 980.125 221.942 980.691 221.962 981.141C222.001 981.824 222.157 982.322 222.43 982.635C222.723 982.947 223.036 983.152 223.368 983.25C223.7 983.328 224.022 983.328 224.335 983.25C224.667 983.172 224.901 983.084 225.038 982.986ZM236.054 975.076C236.132 975.018 236.317 974.93 236.61 974.812C236.903 974.676 237.235 974.568 237.606 974.49C237.977 974.393 238.348 974.344 238.72 974.344C239.11 974.344 239.432 974.422 239.686 974.578C239.843 974.695 239.989 974.998 240.126 975.486C240.282 975.975 240.389 976.512 240.448 977.098C240.526 977.664 240.555 978.201 240.536 978.709C240.536 979.217 240.448 979.529 240.272 979.646C240.096 979.783 239.823 979.871 239.452 979.91C239.1 979.949 238.72 979.949 238.309 979.91C237.919 979.871 237.538 979.793 237.167 979.676C236.796 979.539 236.522 979.363 236.346 979.148C236.171 978.934 236.044 978.621 235.966 978.211C235.888 977.781 235.839 977.352 235.819 976.922C235.819 976.473 235.839 976.072 235.878 975.721C235.917 975.35 235.975 975.135 236.054 975.076ZM253.661 967.752C253.622 967.693 253.554 967.635 253.456 967.576C253.378 967.518 253.28 967.469 253.163 967.43C253.046 967.391 252.929 967.381 252.811 967.4C252.714 967.4 252.636 967.439 252.577 967.518C252.518 967.615 252.411 967.986 252.255 968.631C252.118 969.256 251.971 970.037 251.815 970.975C251.659 971.912 251.522 972.957 251.405 974.109C251.288 975.262 251.229 976.404 251.229 977.537C251.229 978.357 251.259 979.217 251.317 980.115C251.376 980.994 251.444 981.805 251.522 982.547C251.62 983.289 251.727 983.904 251.845 984.393C251.981 984.861 252.118 985.096 252.255 985.096C252.391 985.115 252.577 984.969 252.811 984.656C253.046 984.344 253.27 983.992 253.485 983.602C253.7 983.191 253.895 982.801 254.071 982.43C254.266 982.039 254.393 981.775 254.452 981.639C254.53 981.424 254.638 981.189 254.774 980.936C254.911 980.662 255.048 980.418 255.184 980.203C255.321 979.969 255.458 979.783 255.595 979.646C255.731 979.49 255.848 979.412 255.946 979.412C256.063 979.412 256.161 979.529 256.239 979.764C256.337 979.998 256.405 980.281 256.444 980.613C256.503 980.926 256.542 981.258 256.561 981.609C256.581 981.941 256.591 982.215 256.591 982.43C256.591 982.82 256.513 983.309 256.356 983.895C256.22 984.48 256.034 985.047 255.8 985.594C255.585 986.141 255.341 986.609 255.067 987C254.813 987.391 254.569 987.576 254.335 987.557C254.1 987.537 253.72 987.4 253.192 987.146C252.684 986.893 252.157 986.6 251.61 986.268C251.063 985.936 250.565 985.604 250.116 985.271C249.667 984.939 249.403 984.676 249.325 984.48C249.227 984.305 249.081 983.885 248.886 983.221C248.71 982.537 248.524 981.717 248.329 980.76C248.134 979.803 247.958 978.748 247.802 977.596C247.665 976.443 247.596 975.281 247.596 974.109C247.596 972.938 247.606 971.785 247.626 970.652C247.645 969.5 247.684 968.475 247.743 967.576C247.821 966.678 247.938 965.955 248.095 965.408C248.251 964.842 248.466 964.539 248.739 964.5C249.286 964.441 249.882 964.48 250.526 964.617C251.171 964.734 251.815 964.92 252.46 965.174C253.104 965.428 253.72 965.721 254.305 966.053C254.911 966.365 255.448 966.697 255.917 967.049C256.386 967.381 256.757 967.703 257.03 968.016C257.323 968.328 257.479 968.592 257.499 968.807C257.518 969.139 257.479 969.51 257.382 969.92C257.284 970.33 257.167 970.73 257.03 971.121C256.893 971.492 256.747 971.834 256.591 972.146C256.454 972.439 256.346 972.645 256.268 972.762C256.171 972.898 256.054 973.045 255.917 973.201C255.78 973.357 255.634 973.494 255.477 973.611C255.341 973.729 255.194 973.816 255.038 973.875C254.901 973.914 254.774 973.885 254.657 973.787C254.579 973.729 254.501 973.543 254.423 973.23C254.364 972.918 254.296 972.547 254.218 972.117C254.159 971.688 254.1 971.229 254.042 970.74C253.983 970.232 253.925 969.764 253.866 969.334C253.827 968.904 253.788 968.543 253.749 968.25C253.71 967.957 253.68 967.791 253.661 967.752ZM265.819 968.777C265.487 968.797 265.155 968.807 264.823 968.807C264.511 968.787 264.218 968.777 263.944 968.777C263.632 968.777 263.339 968.768 263.065 968.748C263.104 969.783 263.114 970.994 263.095 972.381C263.095 973.748 263.075 975.154 263.036 976.6C263.016 978.045 262.977 979.461 262.919 980.848C262.88 982.215 262.831 983.426 262.772 984.48C263.514 984.461 264.169 984.461 264.735 984.48C265.302 984.5 265.604 984.529 265.643 984.568C265.682 984.627 265.682 984.822 265.643 985.154C265.604 985.467 265.546 985.818 265.468 986.209C265.389 986.58 265.311 986.922 265.233 987.234C265.155 987.566 265.096 987.771 265.057 987.85C264.511 987.869 264.003 987.869 263.534 987.85C263.085 987.85 262.694 987.83 262.362 987.791C261.971 987.771 261.62 987.742 261.307 987.703C260.995 987.645 260.663 987.576 260.311 987.498C260.018 987.42 259.677 987.322 259.286 987.205C258.915 987.088 258.534 986.941 258.143 986.766C258.065 986.727 257.968 986.619 257.85 986.443C257.753 986.268 257.645 986.082 257.528 985.887C257.43 985.672 257.352 985.467 257.294 985.271C257.216 985.076 257.177 984.939 257.177 984.861C257.177 984.842 257.264 984.822 257.44 984.803C257.616 984.764 257.86 984.734 258.173 984.715C258.485 984.676 258.837 984.646 259.227 984.627C259.618 984.588 260.038 984.559 260.487 984.539C260.448 983.973 260.389 983.23 260.311 982.312C260.253 981.375 260.184 980.369 260.106 979.295C260.048 978.201 259.979 977.088 259.901 975.955C259.843 974.803 259.794 973.738 259.755 972.762C259.716 971.766 259.696 970.896 259.696 970.154C259.696 969.412 259.725 968.895 259.784 968.602C259.804 968.562 259.813 968.533 259.813 968.514C259.813 968.475 259.823 968.436 259.843 968.396L259.022 968.191C258.788 968.133 258.534 968.064 258.261 967.986C257.987 967.908 257.714 967.82 257.44 967.723C257.362 967.684 257.264 967.576 257.147 967.4C257.011 967.225 256.884 967.029 256.766 966.814C256.63 966.6 256.522 966.404 256.444 966.229C256.346 966.033 256.298 965.896 256.298 965.818C256.298 965.779 256.552 965.74 257.059 965.701C257.548 965.643 258.163 965.594 258.905 965.555C259.647 965.516 260.448 965.486 261.307 965.467C262.186 965.447 262.997 965.438 263.739 965.438C264.501 965.438 265.136 965.447 265.643 965.467C266.171 965.467 266.454 965.486 266.493 965.525C266.552 965.584 266.552 965.779 266.493 966.111C266.454 966.424 266.386 966.775 266.288 967.166C266.21 967.537 266.122 967.889 266.024 968.221C265.946 968.533 265.878 968.719 265.819 968.777ZM275.546 964.441C275.604 964.52 275.673 964.92 275.751 965.643C275.848 966.346 275.946 967.225 276.044 968.279C276.161 969.334 276.278 970.486 276.395 971.736C276.513 972.967 276.62 974.158 276.718 975.311C276.815 976.443 276.903 977.459 276.981 978.357C277.059 979.236 277.118 979.852 277.157 980.203C277.216 980.73 277.304 981.375 277.421 982.137C277.557 982.898 277.684 983.65 277.802 984.393C277.938 985.115 278.046 985.75 278.124 986.297C278.202 986.844 278.212 987.166 278.153 987.264C278.095 987.361 277.899 987.352 277.567 987.234C277.235 987.117 276.874 986.951 276.483 986.736C276.093 986.521 275.721 986.287 275.37 986.033C275.038 985.779 274.823 985.564 274.725 985.389C274.628 985.193 274.52 984.871 274.403 984.422C274.286 983.953 274.159 983.338 274.022 982.576C273.768 983.045 273.485 983.523 273.173 984.012C272.86 984.5 272.557 984.949 272.264 985.359C271.971 985.77 271.698 986.111 271.444 986.385C271.21 986.639 271.034 986.756 270.917 986.736C270.721 986.717 270.419 986.463 270.009 985.975C269.618 985.467 269.218 984.9 268.807 984.275C268.397 983.631 268.026 983.025 267.694 982.459C267.382 981.873 267.206 981.482 267.167 981.287C267.147 981.17 267.138 980.906 267.138 980.496C267.138 980.066 267.138 979.559 267.138 978.973C267.157 978.387 267.177 977.752 267.196 977.068C267.235 976.365 267.264 975.682 267.284 975.018C267.323 974.334 267.352 973.689 267.372 973.084C267.411 972.479 267.45 971.98 267.489 971.59C267.528 970.984 267.577 970.359 267.636 969.715C267.714 969.051 267.782 968.436 267.841 967.869C267.919 967.303 267.987 966.824 268.046 966.434C268.124 966.023 268.192 965.77 268.251 965.672C268.29 965.594 268.407 965.545 268.602 965.525C268.817 965.506 269.052 965.525 269.305 965.584C269.559 965.623 269.794 965.701 270.009 965.818C270.223 965.916 270.37 966.043 270.448 966.199C270.487 966.297 270.507 966.688 270.507 967.371C270.526 968.035 270.536 968.836 270.536 969.773C270.536 970.711 270.526 971.727 270.507 972.82C270.507 973.895 270.497 974.91 270.477 975.867C270.458 976.824 270.438 977.645 270.419 978.328C270.419 978.992 270.419 979.383 270.419 979.5C270.419 979.715 270.565 980.057 270.858 980.525C271.171 980.975 271.454 981.521 271.708 982.166L273.554 980.086C273.534 979.539 273.514 978.836 273.495 977.977C273.495 977.117 273.485 976.209 273.466 975.252C273.446 974.275 273.427 973.299 273.407 972.322C273.407 971.326 273.407 970.418 273.407 969.598C273.407 968.777 273.407 968.104 273.407 967.576C273.427 967.029 273.446 966.717 273.466 966.639C273.524 966.482 273.641 966.258 273.817 965.965C274.013 965.652 274.218 965.369 274.432 965.115C274.647 964.842 274.862 964.627 275.077 964.471C275.292 964.314 275.448 964.305 275.546 964.441ZM283.046 965.232C283.436 965.311 283.973 965.545 284.657 965.936C285.341 966.307 286.024 966.736 286.708 967.225C287.411 967.693 288.026 968.162 288.554 968.631C289.081 969.08 289.393 969.402 289.491 969.598C289.569 969.793 289.598 970.154 289.579 970.682C289.559 971.209 289.501 971.854 289.403 972.615C289.305 973.357 289.179 974.178 289.022 975.076C288.866 975.975 288.69 976.883 288.495 977.801C288.3 978.699 288.085 979.578 287.85 980.438C287.636 981.277 287.411 982.02 287.177 982.664C287.079 982.977 286.864 983.318 286.532 983.689C286.2 984.061 285.809 984.432 285.36 984.803C284.911 985.154 284.432 985.486 283.925 985.799C283.436 986.111 282.968 986.375 282.518 986.59C282.089 986.805 281.698 986.951 281.346 987.029C281.014 987.107 280.79 987.088 280.673 986.971C280.555 986.854 280.429 986.482 280.292 985.857C280.175 985.213 280.057 984.412 279.94 983.455C279.823 982.479 279.716 981.395 279.618 980.203C279.52 978.992 279.432 977.762 279.354 976.512C279.276 975.262 279.208 974.041 279.149 972.85C279.11 971.639 279.081 970.555 279.061 969.598C279.061 968.621 279.081 967.811 279.12 967.166C279.159 966.502 279.227 966.102 279.325 965.965C279.403 965.867 279.598 965.77 279.911 965.672C280.243 965.574 280.604 965.486 280.995 965.408C281.405 965.33 281.805 965.271 282.196 965.232C282.587 965.193 282.87 965.193 283.046 965.232ZM282.87 968.953C282.733 969.051 282.636 969.354 282.577 969.861C282.518 970.35 282.47 970.945 282.43 971.648C282.411 972.332 282.401 973.064 282.401 973.846C282.401 974.627 282.391 975.34 282.372 975.984C282.333 977.664 282.313 978.992 282.313 979.969C282.333 980.926 282.352 981.648 282.372 982.137C282.411 982.605 282.46 982.908 282.518 983.045C282.577 983.162 282.655 983.221 282.753 983.221C282.831 983.221 282.958 983.162 283.134 983.045C283.329 982.928 283.534 982.781 283.749 982.605C283.964 982.43 284.169 982.244 284.364 982.049C284.559 981.834 284.696 981.648 284.774 981.492C284.852 981.336 284.95 981.033 285.067 980.584C285.184 980.115 285.302 979.578 285.419 978.973C285.536 978.348 285.653 977.693 285.77 977.01C285.888 976.307 285.985 975.643 286.063 975.018C286.161 974.373 286.229 973.807 286.268 973.318C286.327 972.811 286.356 972.449 286.356 972.234C286.337 971.824 286.171 971.404 285.858 970.975C285.546 970.545 285.184 970.164 284.774 969.832C284.384 969.5 283.993 969.246 283.602 969.07C283.231 968.895 282.987 968.855 282.87 968.953ZM303.055 979.178C303.095 979.236 303.085 979.432 303.026 979.764C302.987 980.096 302.919 980.457 302.821 980.848C302.743 981.238 302.655 981.609 302.557 981.961C302.479 982.293 302.411 982.488 302.352 982.547H302.059C302.001 982.547 301.942 982.537 301.884 982.518C301.981 983.455 302.059 984.207 302.118 984.773C302.177 985.34 302.206 985.652 302.206 985.711C302.206 985.848 302.138 986.043 302.001 986.297C301.884 986.551 301.747 986.785 301.591 987C301.434 987.215 301.268 987.381 301.093 987.498C300.936 987.635 300.829 987.645 300.77 987.527C300.673 987.352 300.468 986.824 300.155 985.945C299.843 985.066 299.491 983.865 299.1 982.342C298.71 982.303 298.3 982.264 297.87 982.225C297.46 982.186 297.04 982.146 296.61 982.107C296.18 982.068 295.751 982.02 295.321 981.961C294.911 981.883 294.511 981.814 294.12 981.756C293.925 982.615 293.729 983.426 293.534 984.188C293.358 984.949 293.182 985.613 293.007 986.18C292.85 986.746 292.714 987.195 292.596 987.527C292.479 987.859 292.391 988.025 292.333 988.025C292.177 988.025 292.02 987.928 291.864 987.732C291.708 987.537 291.561 987.303 291.425 987.029C291.307 986.756 291.21 986.473 291.132 986.18C291.054 985.887 291.014 985.643 291.014 985.447C291.054 984.998 291.102 984.529 291.161 984.041C291.239 983.553 291.298 983.104 291.337 982.693C291.395 982.205 291.454 981.727 291.513 981.258H291.395C291.317 981.219 291.21 981.131 291.073 980.994C290.936 980.857 290.8 980.721 290.663 980.584C290.526 980.428 290.409 980.281 290.311 980.145C290.214 979.988 290.165 979.871 290.165 979.793C290.165 979.754 290.302 979.715 290.575 979.676C290.868 979.637 291.249 979.598 291.718 979.559C291.874 978.387 292.04 977.166 292.216 975.896C292.391 974.627 292.567 973.436 292.743 972.322C292.919 971.209 293.085 970.242 293.241 969.422C293.417 968.582 293.563 968.006 293.68 967.693C293.876 967.166 294.218 966.697 294.706 966.287C295.194 965.857 295.702 965.506 296.229 965.232C296.776 964.939 297.294 964.715 297.782 964.559C298.27 964.402 298.632 964.324 298.866 964.324C298.964 964.324 299.071 964.549 299.188 964.998C299.325 965.428 299.462 966.014 299.598 966.756C299.755 967.498 299.911 968.367 300.067 969.363C300.243 970.34 300.409 971.375 300.565 972.469C300.721 973.562 300.868 974.686 301.005 975.838C301.161 976.971 301.307 978.055 301.444 979.09C302.421 979.09 302.958 979.119 303.055 979.178ZM294.677 979.354C295.302 979.314 295.927 979.285 296.552 979.266C297.177 979.246 297.792 979.217 298.397 979.178C298.241 978.416 298.065 977.566 297.87 976.629C297.714 975.828 297.528 974.891 297.313 973.816C297.098 972.742 296.884 971.561 296.669 970.271C296.434 971.424 296.2 972.547 295.966 973.641C295.731 974.715 295.516 975.682 295.321 976.541C295.106 977.537 294.891 978.475 294.677 979.354ZM307.948 965.232C308.339 965.311 308.876 965.545 309.559 965.936C310.243 966.307 310.927 966.736 311.61 967.225C312.313 967.693 312.929 968.162 313.456 968.631C313.983 969.08 314.296 969.402 314.393 969.598C314.471 969.793 314.501 970.154 314.481 970.682C314.462 971.209 314.403 971.854 314.305 972.615C314.208 973.357 314.081 974.178 313.925 975.076C313.768 975.975 313.593 976.883 313.397 977.801C313.202 978.699 312.987 979.578 312.753 980.438C312.538 981.277 312.313 982.02 312.079 982.664C311.981 982.977 311.766 983.318 311.434 983.689C311.102 984.061 310.712 984.432 310.263 984.803C309.813 985.154 309.335 985.486 308.827 985.799C308.339 986.111 307.87 986.375 307.421 986.59C306.991 986.805 306.6 986.951 306.249 987.029C305.917 987.107 305.692 987.088 305.575 986.971C305.458 986.854 305.331 986.482 305.194 985.857C305.077 985.213 304.96 984.412 304.843 983.455C304.725 982.479 304.618 981.395 304.52 980.203C304.423 978.992 304.335 977.762 304.257 976.512C304.179 975.262 304.11 974.041 304.052 972.85C304.013 971.639 303.983 970.555 303.964 969.598C303.964 968.621 303.983 967.811 304.022 967.166C304.061 966.502 304.13 966.102 304.227 965.965C304.305 965.867 304.501 965.77 304.813 965.672C305.145 965.574 305.507 965.486 305.897 965.408C306.307 965.33 306.708 965.271 307.098 965.232C307.489 965.193 307.772 965.193 307.948 965.232ZM307.772 968.953C307.636 969.051 307.538 969.354 307.479 969.861C307.421 970.35 307.372 970.945 307.333 971.648C307.313 972.332 307.304 973.064 307.304 973.846C307.304 974.627 307.294 975.34 307.274 975.984C307.235 977.664 307.216 978.992 307.216 979.969C307.235 980.926 307.255 981.648 307.274 982.137C307.313 982.605 307.362 982.908 307.421 983.045C307.479 983.162 307.557 983.221 307.655 983.221C307.733 983.221 307.86 983.162 308.036 983.045C308.231 982.928 308.436 982.781 308.651 982.605C308.866 982.43 309.071 982.244 309.266 982.049C309.462 981.834 309.598 981.648 309.677 981.492C309.755 981.336 309.852 981.033 309.97 980.584C310.087 980.115 310.204 979.578 310.321 978.973C310.438 978.348 310.555 977.693 310.673 977.01C310.79 976.307 310.888 975.643 310.966 975.018C311.063 974.373 311.132 973.807 311.171 973.318C311.229 972.811 311.259 972.449 311.259 972.234C311.239 971.824 311.073 971.404 310.761 970.975C310.448 970.545 310.087 970.164 309.677 969.832C309.286 969.5 308.895 969.246 308.505 969.07C308.134 968.895 307.889 968.855 307.772 968.953ZM330.302 970.213C330.223 970.311 329.745 970.32 328.866 970.242C327.987 970.164 326.6 970.037 324.706 969.861C324.706 970.506 324.706 971.297 324.706 972.234C324.725 973.172 324.725 974.178 324.706 975.252C326.171 975.389 327.313 975.516 328.134 975.633C328.954 975.75 329.384 975.828 329.423 975.867C329.501 975.945 329.53 976.111 329.511 976.365C329.491 976.6 329.442 976.863 329.364 977.156C329.286 977.449 329.188 977.732 329.071 978.006C328.954 978.26 328.837 978.426 328.72 978.504C328.622 978.543 328.231 978.602 327.548 978.68C326.884 978.738 325.936 978.797 324.706 978.855C324.706 979.695 324.696 980.525 324.677 981.346C324.677 982.166 324.667 982.918 324.647 983.602C326.542 983.621 327.919 983.66 328.778 983.719C329.657 983.758 330.136 983.816 330.214 983.895C330.292 983.992 330.292 984.178 330.214 984.451C330.155 984.725 330.048 985.018 329.891 985.33C329.755 985.623 329.598 985.916 329.423 986.209C329.266 986.502 329.139 986.707 329.042 986.824C329.003 986.863 328.768 986.883 328.339 986.883C327.909 986.863 327.43 986.834 326.903 986.795C326.376 986.756 325.868 986.717 325.38 986.678C324.891 986.619 324.569 986.57 324.413 986.531C324.12 986.434 323.807 986.277 323.475 986.062C323.143 985.828 322.88 985.535 322.684 985.184C322.645 985.086 322.577 984.764 322.479 984.217C322.401 983.65 322.313 982.938 322.216 982.078C322.118 981.219 322.02 980.252 321.923 979.178C321.825 978.104 321.727 977.01 321.63 975.896C321.532 974.783 321.444 973.689 321.366 972.615C321.288 971.541 321.22 970.574 321.161 969.715C321.122 968.836 321.102 968.113 321.102 967.547C321.102 966.961 321.132 966.609 321.19 966.492C321.249 966.336 321.522 966.219 322.011 966.141C322.499 966.062 323.085 966.014 323.768 965.994C324.452 965.955 325.184 965.945 325.966 965.965C326.766 965.984 327.509 966.023 328.192 966.082C328.876 966.121 329.452 966.18 329.921 966.258C330.389 966.316 330.653 966.375 330.712 966.434C330.79 966.531 330.829 966.756 330.829 967.107C330.848 967.459 330.829 967.85 330.77 968.279C330.731 968.689 330.663 969.09 330.565 969.48C330.487 969.852 330.399 970.096 330.302 970.213ZM341.874 969.275C341.893 969.568 341.854 970.008 341.757 970.594C341.679 971.18 341.542 971.766 341.346 972.352C341.151 972.938 340.897 973.455 340.585 973.904C340.292 974.334 339.95 974.549 339.559 974.549C339.364 974.549 339.198 974.432 339.061 974.197C338.925 973.963 338.807 973.66 338.71 973.289C338.612 972.918 338.534 972.508 338.475 972.059C338.417 971.59 338.358 971.141 338.3 970.711C338.261 970.281 338.221 969.891 338.182 969.539C338.163 969.168 338.143 968.895 338.124 968.719C338.046 968.602 337.899 968.484 337.684 968.367C337.489 968.23 337.313 968.162 337.157 968.162C336.981 968.162 336.766 968.328 336.513 968.66C336.278 968.992 336.054 969.383 335.839 969.832C335.624 970.281 335.448 970.73 335.311 971.18C335.175 971.609 335.116 971.941 335.136 972.176C335.136 972.332 335.282 972.605 335.575 972.996C335.888 973.387 336.268 973.846 336.718 974.373C337.167 974.9 337.655 975.477 338.182 976.102C338.71 976.707 339.198 977.312 339.647 977.918C340.096 978.523 340.477 979.1 340.79 979.646C341.102 980.193 341.268 980.662 341.288 981.053C341.327 981.521 341.22 982.127 340.966 982.869C340.731 983.592 340.429 984.295 340.057 984.979C339.686 985.662 339.286 986.258 338.856 986.766C338.446 987.254 338.075 987.508 337.743 987.527C337.528 987.547 337.245 987.449 336.893 987.234C336.542 987.039 336.161 986.775 335.751 986.443C335.341 986.111 334.921 985.75 334.491 985.359C334.081 984.949 333.69 984.549 333.319 984.158C332.968 983.768 332.665 983.416 332.411 983.104C332.177 982.771 332.04 982.527 332.001 982.371C331.923 982.137 331.874 981.824 331.854 981.434C331.854 981.023 331.874 980.633 331.913 980.262C331.971 979.871 332.04 979.539 332.118 979.266C332.216 978.973 332.333 978.826 332.47 978.826C332.567 978.826 332.723 978.953 332.938 979.207C333.173 979.461 333.436 979.783 333.729 980.174C334.022 980.564 334.335 980.994 334.667 981.463C335.018 981.912 335.35 982.332 335.663 982.723C335.975 983.113 336.259 983.445 336.513 983.719C336.766 983.973 336.971 984.09 337.128 984.07C337.245 984.07 337.372 983.982 337.509 983.807C337.645 983.611 337.772 983.387 337.889 983.133C338.007 982.859 338.104 982.586 338.182 982.312C338.261 982.039 338.3 981.824 338.3 981.668C338.28 981.434 338.085 981.102 337.714 980.672C337.362 980.223 336.913 979.725 336.366 979.178C335.839 978.611 335.263 978.025 334.638 977.42C334.032 976.814 333.456 976.238 332.909 975.691C332.382 975.125 331.932 974.617 331.561 974.168C331.21 973.719 331.024 973.377 331.005 973.143C330.985 972.908 331.054 972.547 331.21 972.059C331.366 971.551 331.571 970.984 331.825 970.359C332.098 969.734 332.401 969.1 332.733 968.455C333.065 967.811 333.407 967.215 333.759 966.668C334.11 966.121 334.452 965.682 334.784 965.35C335.116 964.998 335.409 964.822 335.663 964.822C335.995 964.822 336.376 964.9 336.805 965.057C337.235 965.193 337.675 965.389 338.124 965.643C338.593 965.877 339.042 966.15 339.471 966.463C339.921 966.775 340.321 967.098 340.673 967.43C341.024 967.742 341.307 968.064 341.522 968.396C341.737 968.709 341.854 969.002 341.874 969.275ZM348.846 967.752C348.807 967.693 348.739 967.635 348.641 967.576C348.563 967.518 348.466 967.469 348.348 967.43C348.231 967.391 348.114 967.381 347.997 967.4C347.899 967.4 347.821 967.439 347.763 967.518C347.704 967.615 347.596 967.986 347.44 968.631C347.304 969.256 347.157 970.037 347.001 970.975C346.845 971.912 346.708 972.957 346.591 974.109C346.473 975.262 346.415 976.404 346.415 977.537C346.415 978.357 346.444 979.217 346.503 980.115C346.561 980.994 346.63 981.805 346.708 982.547C346.805 983.289 346.913 983.904 347.03 984.393C347.167 984.861 347.304 985.096 347.44 985.096C347.577 985.115 347.763 984.969 347.997 984.656C348.231 984.344 348.456 983.992 348.671 983.602C348.886 983.191 349.081 982.801 349.257 982.43C349.452 982.039 349.579 981.775 349.638 981.639C349.716 981.424 349.823 981.189 349.96 980.936C350.096 980.662 350.233 980.418 350.37 980.203C350.507 979.969 350.643 979.783 350.78 979.646C350.917 979.49 351.034 979.412 351.132 979.412C351.249 979.412 351.346 979.529 351.425 979.764C351.522 979.998 351.591 980.281 351.63 980.613C351.688 980.926 351.727 981.258 351.747 981.609C351.766 981.941 351.776 982.215 351.776 982.43C351.776 982.82 351.698 983.309 351.542 983.895C351.405 984.48 351.22 985.047 350.985 985.594C350.77 986.141 350.526 986.609 350.253 987C349.999 987.391 349.755 987.576 349.52 987.557C349.286 987.537 348.905 987.4 348.378 987.146C347.87 986.893 347.343 986.6 346.796 986.268C346.249 985.936 345.751 985.604 345.302 985.271C344.852 984.939 344.589 984.676 344.511 984.48C344.413 984.305 344.266 983.885 344.071 983.221C343.895 982.537 343.71 981.717 343.514 980.76C343.319 979.803 343.143 978.748 342.987 977.596C342.85 976.443 342.782 975.281 342.782 974.109C342.782 972.938 342.792 971.785 342.811 970.652C342.831 969.5 342.87 968.475 342.929 967.576C343.007 966.678 343.124 965.955 343.28 965.408C343.436 964.842 343.651 964.539 343.925 964.5C344.471 964.441 345.067 964.48 345.712 964.617C346.356 964.734 347.001 964.92 347.645 965.174C348.29 965.428 348.905 965.721 349.491 966.053C350.096 966.365 350.634 966.697 351.102 967.049C351.571 967.381 351.942 967.703 352.216 968.016C352.509 968.328 352.665 968.592 352.684 968.807C352.704 969.139 352.665 969.51 352.567 969.92C352.47 970.33 352.352 970.73 352.216 971.121C352.079 971.492 351.932 971.834 351.776 972.146C351.639 972.439 351.532 972.645 351.454 972.762C351.356 972.898 351.239 973.045 351.102 973.201C350.966 973.357 350.819 973.494 350.663 973.611C350.526 973.729 350.38 973.816 350.223 973.875C350.087 973.914 349.96 973.885 349.843 973.787C349.764 973.729 349.686 973.543 349.608 973.23C349.55 972.918 349.481 972.547 349.403 972.117C349.345 971.688 349.286 971.229 349.227 970.74C349.169 970.232 349.11 969.764 349.052 969.334C349.013 968.904 348.973 968.543 348.934 968.25C348.895 967.957 348.866 967.791 348.846 967.752ZM365.868 979.178C365.907 979.236 365.897 979.432 365.839 979.764C365.8 980.096 365.731 980.457 365.634 980.848C365.555 981.238 365.468 981.609 365.37 981.961C365.292 982.293 365.223 982.488 365.165 982.547H364.872C364.813 982.547 364.755 982.537 364.696 982.518C364.794 983.455 364.872 984.207 364.93 984.773C364.989 985.34 365.018 985.652 365.018 985.711C365.018 985.848 364.95 986.043 364.813 986.297C364.696 986.551 364.559 986.785 364.403 987C364.247 987.215 364.081 987.381 363.905 987.498C363.749 987.635 363.641 987.645 363.583 987.527C363.485 987.352 363.28 986.824 362.968 985.945C362.655 985.066 362.304 983.865 361.913 982.342C361.522 982.303 361.112 982.264 360.682 982.225C360.272 982.186 359.852 982.146 359.423 982.107C358.993 982.068 358.563 982.02 358.134 981.961C357.723 981.883 357.323 981.814 356.932 981.756C356.737 982.615 356.542 983.426 356.346 984.188C356.171 984.949 355.995 985.613 355.819 986.18C355.663 986.746 355.526 987.195 355.409 987.527C355.292 987.859 355.204 988.025 355.145 988.025C354.989 988.025 354.833 987.928 354.677 987.732C354.52 987.537 354.374 987.303 354.237 987.029C354.12 986.756 354.022 986.473 353.944 986.18C353.866 985.887 353.827 985.643 353.827 985.447C353.866 984.998 353.915 984.529 353.973 984.041C354.052 983.553 354.11 983.104 354.149 982.693C354.208 982.205 354.266 981.727 354.325 981.258H354.208C354.13 981.219 354.022 981.131 353.886 980.994C353.749 980.857 353.612 980.721 353.475 980.584C353.339 980.428 353.221 980.281 353.124 980.145C353.026 979.988 352.977 979.871 352.977 979.793C352.977 979.754 353.114 979.715 353.388 979.676C353.68 979.637 354.061 979.598 354.53 979.559C354.686 978.387 354.852 977.166 355.028 975.896C355.204 974.627 355.38 973.436 355.555 972.322C355.731 971.209 355.897 970.242 356.054 969.422C356.229 968.582 356.376 968.006 356.493 967.693C356.688 967.166 357.03 966.697 357.518 966.287C358.007 965.857 358.514 965.506 359.042 965.232C359.589 964.939 360.106 964.715 360.595 964.559C361.083 964.402 361.444 964.324 361.679 964.324C361.776 964.324 361.884 964.549 362.001 964.998C362.138 965.428 362.274 966.014 362.411 966.756C362.567 967.498 362.723 968.367 362.88 969.363C363.055 970.34 363.221 971.375 363.378 972.469C363.534 973.562 363.68 974.686 363.817 975.838C363.973 976.971 364.12 978.055 364.257 979.09C365.233 979.09 365.77 979.119 365.868 979.178ZM357.489 979.354C358.114 979.314 358.739 979.285 359.364 979.266C359.989 979.246 360.604 979.217 361.21 979.178C361.054 978.416 360.878 977.566 360.682 976.629C360.526 975.828 360.341 974.891 360.126 973.816C359.911 972.742 359.696 971.561 359.481 970.271C359.247 971.424 359.013 972.547 358.778 973.641C358.544 974.715 358.329 975.682 358.134 976.541C357.919 977.537 357.704 978.475 357.489 979.354ZM381.073 966.785C381.112 966.863 381.132 967.137 381.132 967.605C381.151 968.074 381.151 968.641 381.132 969.305C381.132 969.969 381.112 970.682 381.073 971.443C381.034 972.186 380.985 972.889 380.927 973.553C380.888 973.924 380.819 974.48 380.721 975.223C380.643 975.965 380.546 976.785 380.429 977.684C380.311 978.582 380.184 979.51 380.048 980.467C379.93 981.404 379.813 982.273 379.696 983.074C379.579 983.855 379.471 984.51 379.374 985.037C379.296 985.564 379.237 985.848 379.198 985.887C379.12 985.945 378.993 986.092 378.817 986.326C378.641 986.541 378.446 986.766 378.231 987C378.036 987.215 377.85 987.391 377.675 987.527C377.499 987.664 377.382 987.684 377.323 987.586C377.284 987.391 377.264 986.785 377.264 985.77C377.264 985.34 377.264 984.803 377.264 984.158C377.284 983.494 377.304 982.693 377.323 981.756C377.362 980.818 377.411 979.725 377.47 978.475C377.528 977.225 377.596 975.779 377.675 974.139C377.284 975.467 376.932 976.639 376.62 977.654C376.327 978.67 376.063 979.559 375.829 980.32C375.614 981.062 375.429 981.697 375.272 982.225C375.116 982.732 374.979 983.152 374.862 983.484C374.608 984.266 374.442 984.725 374.364 984.861C374.286 984.881 374.159 984.822 373.983 984.686C373.827 984.549 373.641 984.354 373.427 984.1C373.231 983.826 373.026 983.504 372.811 983.133C372.616 982.762 372.45 982.352 372.313 981.902C372.177 981.492 372.001 980.945 371.786 980.262C371.591 979.676 371.337 978.914 371.024 977.977C370.712 977.02 370.331 975.828 369.882 974.402C369.999 976.004 370.096 977.41 370.175 978.621C370.253 979.832 370.311 980.887 370.35 981.785C370.409 982.684 370.448 983.445 370.468 984.07C370.507 984.676 370.526 985.184 370.526 985.594C370.546 986.531 370.516 987.068 370.438 987.205C370.243 987.205 370.028 987.117 369.794 986.941C369.579 986.746 369.364 986.521 369.149 986.268C368.954 985.994 368.778 985.73 368.622 985.477C368.485 985.223 368.407 985.037 368.388 984.92C368.368 984.842 368.309 984.48 368.212 983.836C368.114 983.191 367.997 982.371 367.86 981.375C367.743 980.359 367.606 979.227 367.45 977.977C367.313 976.707 367.177 975.418 367.04 974.109C366.923 972.801 366.825 971.531 366.747 970.301C366.669 969.051 366.63 967.938 366.63 966.961C366.63 966.805 366.825 966.6 367.216 966.346C367.606 966.072 368.046 965.818 368.534 965.584C369.042 965.33 369.511 965.115 369.94 964.939C370.37 964.744 370.634 964.646 370.731 964.646C370.809 964.646 370.888 964.871 370.966 965.32C371.063 965.77 371.171 966.336 371.288 967.02C371.405 967.703 371.532 968.465 371.669 969.305C371.805 970.145 371.962 970.945 372.138 971.707C372.274 972.488 372.44 973.299 372.636 974.139C372.792 974.861 372.968 975.662 373.163 976.541C373.378 977.4 373.612 978.24 373.866 979.061C374.139 977.869 374.384 976.795 374.598 975.838C374.833 974.861 375.038 974.031 375.214 973.348C375.429 972.547 375.614 971.834 375.77 971.209C376.122 969.686 376.464 968.484 376.796 967.605C377.147 966.727 377.372 966.209 377.47 966.053C377.528 965.975 377.733 965.955 378.085 965.994C378.456 966.033 378.856 966.102 379.286 966.199C379.716 966.277 380.106 966.375 380.458 966.492C380.829 966.609 381.034 966.707 381.073 966.785ZM394.784 979.178C394.823 979.236 394.813 979.432 394.755 979.764C394.716 980.096 394.647 980.457 394.55 980.848C394.471 981.238 394.384 981.609 394.286 981.961C394.208 982.293 394.139 982.488 394.081 982.547H393.788C393.729 982.547 393.671 982.537 393.612 982.518C393.71 983.455 393.788 984.207 393.846 984.773C393.905 985.34 393.934 985.652 393.934 985.711C393.934 985.848 393.866 986.043 393.729 986.297C393.612 986.551 393.475 986.785 393.319 987C393.163 987.215 392.997 987.381 392.821 987.498C392.665 987.635 392.557 987.645 392.499 987.527C392.401 987.352 392.196 986.824 391.884 985.945C391.571 985.066 391.22 983.865 390.829 982.342C390.438 982.303 390.028 982.264 389.598 982.225C389.188 982.186 388.768 982.146 388.339 982.107C387.909 982.068 387.479 982.02 387.05 981.961C386.639 981.883 386.239 981.814 385.848 981.756C385.653 982.615 385.458 983.426 385.263 984.188C385.087 984.949 384.911 985.613 384.735 986.18C384.579 986.746 384.442 987.195 384.325 987.527C384.208 987.859 384.12 988.025 384.061 988.025C383.905 988.025 383.749 987.928 383.593 987.732C383.436 987.537 383.29 987.303 383.153 987.029C383.036 986.756 382.938 986.473 382.86 986.18C382.782 985.887 382.743 985.643 382.743 985.447C382.782 984.998 382.831 984.529 382.889 984.041C382.968 983.553 383.026 983.104 383.065 982.693C383.124 982.205 383.182 981.727 383.241 981.258H383.124C383.046 981.219 382.938 981.131 382.802 980.994C382.665 980.857 382.528 980.721 382.391 980.584C382.255 980.428 382.138 980.281 382.04 980.145C381.942 979.988 381.893 979.871 381.893 979.793C381.893 979.754 382.03 979.715 382.304 979.676C382.596 979.637 382.977 979.598 383.446 979.559C383.602 978.387 383.768 977.166 383.944 975.896C384.12 974.627 384.296 973.436 384.471 972.322C384.647 971.209 384.813 970.242 384.97 969.422C385.145 968.582 385.292 968.006 385.409 967.693C385.604 967.166 385.946 966.697 386.434 966.287C386.923 965.857 387.43 965.506 387.958 965.232C388.505 964.939 389.022 964.715 389.511 964.559C389.999 964.402 390.36 964.324 390.595 964.324C390.692 964.324 390.8 964.549 390.917 964.998C391.054 965.428 391.19 966.014 391.327 966.756C391.483 967.498 391.639 968.367 391.796 969.363C391.971 970.34 392.138 971.375 392.294 972.469C392.45 973.562 392.596 974.686 392.733 975.838C392.889 976.971 393.036 978.055 393.173 979.09C394.149 979.09 394.686 979.119 394.784 979.178ZM386.405 979.354C387.03 979.314 387.655 979.285 388.28 979.266C388.905 979.246 389.52 979.217 390.126 979.178C389.97 978.416 389.794 977.566 389.598 976.629C389.442 975.828 389.257 974.891 389.042 973.816C388.827 972.742 388.612 971.561 388.397 970.271C388.163 971.424 387.929 972.547 387.694 973.641C387.46 974.715 387.245 975.682 387.05 976.541C386.835 977.537 386.62 978.475 386.405 979.354ZM398.651 982.43C398.593 982.879 398.495 983.377 398.358 983.924C398.241 984.451 398.104 984.959 397.948 985.447C397.811 985.936 397.665 986.375 397.509 986.766C397.372 987.137 397.255 987.391 397.157 987.527C397.079 987.645 396.962 987.732 396.805 987.791C396.669 987.85 396.513 987.879 396.337 987.879C396.18 987.879 396.024 987.85 395.868 987.791C395.712 987.732 395.595 987.625 395.516 987.469C395.458 987.391 395.419 987.146 395.399 986.736C395.399 986.326 395.399 985.887 395.399 985.418C395.419 984.93 395.438 984.461 395.458 984.012C395.477 983.543 395.507 983.211 395.546 983.016C395.604 982.762 395.643 982.596 395.663 982.518C395.682 982.42 395.712 982.322 395.751 982.225C395.848 981.99 396.044 981.785 396.337 981.609C396.649 981.434 396.971 981.297 397.304 981.199C397.636 981.102 397.938 981.062 398.212 981.082C398.485 981.082 398.651 981.16 398.71 981.316C398.749 981.414 398.759 981.58 398.739 981.814C398.72 982.049 398.69 982.254 398.651 982.43ZM419.774 966.785C419.813 966.863 419.833 967.137 419.833 967.605C419.852 968.074 419.852 968.641 419.833 969.305C419.833 969.969 419.813 970.682 419.774 971.443C419.735 972.186 419.686 972.889 419.628 973.553C419.589 973.924 419.52 974.48 419.423 975.223C419.345 975.965 419.247 976.785 419.13 977.684C419.013 978.582 418.886 979.51 418.749 980.467C418.632 981.404 418.514 982.273 418.397 983.074C418.28 983.855 418.173 984.51 418.075 985.037C417.997 985.564 417.938 985.848 417.899 985.887C417.821 985.945 417.694 986.092 417.518 986.326C417.343 986.541 417.147 986.766 416.932 987C416.737 987.215 416.552 987.391 416.376 987.527C416.2 987.664 416.083 987.684 416.024 987.586C415.985 987.391 415.966 986.785 415.966 985.77C415.966 985.34 415.966 984.803 415.966 984.158C415.985 983.494 416.005 982.693 416.024 981.756C416.063 980.818 416.112 979.725 416.171 978.475C416.229 977.225 416.298 975.779 416.376 974.139C415.985 975.467 415.634 976.639 415.321 977.654C415.028 978.67 414.764 979.559 414.53 980.32C414.315 981.062 414.13 981.697 413.973 982.225C413.817 982.732 413.68 983.152 413.563 983.484C413.309 984.266 413.143 984.725 413.065 984.861C412.987 984.881 412.86 984.822 412.684 984.686C412.528 984.549 412.343 984.354 412.128 984.1C411.932 983.826 411.727 983.504 411.513 983.133C411.317 982.762 411.151 982.352 411.014 981.902C410.878 981.492 410.702 980.945 410.487 980.262C410.292 979.676 410.038 978.914 409.725 977.977C409.413 977.02 409.032 975.828 408.583 974.402C408.7 976.004 408.798 977.41 408.876 978.621C408.954 979.832 409.013 980.887 409.052 981.785C409.11 982.684 409.149 983.445 409.169 984.07C409.208 984.676 409.227 985.184 409.227 985.594C409.247 986.531 409.218 987.068 409.139 987.205C408.944 987.205 408.729 987.117 408.495 986.941C408.28 986.746 408.065 986.521 407.85 986.268C407.655 985.994 407.479 985.73 407.323 985.477C407.186 985.223 407.108 985.037 407.089 984.92C407.069 984.842 407.011 984.48 406.913 983.836C406.815 983.191 406.698 982.371 406.561 981.375C406.444 980.359 406.307 979.227 406.151 977.977C406.014 976.707 405.878 975.418 405.741 974.109C405.624 972.801 405.526 971.531 405.448 970.301C405.37 969.051 405.331 967.938 405.331 966.961C405.331 966.805 405.526 966.6 405.917 966.346C406.307 966.072 406.747 965.818 407.235 965.584C407.743 965.33 408.212 965.115 408.641 964.939C409.071 964.744 409.335 964.646 409.432 964.646C409.511 964.646 409.589 964.871 409.667 965.32C409.764 965.77 409.872 966.336 409.989 967.02C410.106 967.703 410.233 968.465 410.37 969.305C410.507 970.145 410.663 970.945 410.839 971.707C410.975 972.488 411.141 973.299 411.337 974.139C411.493 974.861 411.669 975.662 411.864 976.541C412.079 977.4 412.313 978.24 412.567 979.061C412.841 977.869 413.085 976.795 413.3 975.838C413.534 974.861 413.739 974.031 413.915 973.348C414.13 972.547 414.315 971.834 414.471 971.209C414.823 969.686 415.165 968.484 415.497 967.605C415.848 966.727 416.073 966.209 416.171 966.053C416.229 965.975 416.434 965.955 416.786 965.994C417.157 966.033 417.557 966.102 417.987 966.199C418.417 966.277 418.807 966.375 419.159 966.492C419.53 966.609 419.735 966.707 419.774 966.785ZM430.116 970.213C430.038 970.311 429.559 970.32 428.68 970.242C427.802 970.164 426.415 970.037 424.52 969.861C424.52 970.506 424.52 971.297 424.52 972.234C424.54 973.172 424.54 974.178 424.52 975.252C425.985 975.389 427.128 975.516 427.948 975.633C428.768 975.75 429.198 975.828 429.237 975.867C429.315 975.945 429.345 976.111 429.325 976.365C429.305 976.6 429.257 976.863 429.179 977.156C429.1 977.449 429.003 977.732 428.886 978.006C428.768 978.26 428.651 978.426 428.534 978.504C428.436 978.543 428.046 978.602 427.362 978.68C426.698 978.738 425.751 978.797 424.52 978.855C424.52 979.695 424.511 980.525 424.491 981.346C424.491 982.166 424.481 982.918 424.462 983.602C426.356 983.621 427.733 983.66 428.593 983.719C429.471 983.758 429.95 983.816 430.028 983.895C430.106 983.992 430.106 984.178 430.028 984.451C429.97 984.725 429.862 985.018 429.706 985.33C429.569 985.623 429.413 985.916 429.237 986.209C429.081 986.502 428.954 986.707 428.856 986.824C428.817 986.863 428.583 986.883 428.153 986.883C427.723 986.863 427.245 986.834 426.718 986.795C426.19 986.756 425.682 986.717 425.194 986.678C424.706 986.619 424.384 986.57 424.227 986.531C423.934 986.434 423.622 986.277 423.29 986.062C422.958 985.828 422.694 985.535 422.499 985.184C422.46 985.086 422.391 984.764 422.294 984.217C422.216 983.65 422.128 982.938 422.03 982.078C421.932 981.219 421.835 980.252 421.737 979.178C421.639 978.104 421.542 977.01 421.444 975.896C421.346 974.783 421.259 973.689 421.18 972.615C421.102 971.541 421.034 970.574 420.975 969.715C420.936 968.836 420.917 968.113 420.917 967.547C420.917 966.961 420.946 966.609 421.005 966.492C421.063 966.336 421.337 966.219 421.825 966.141C422.313 966.062 422.899 966.014 423.583 965.994C424.266 965.955 424.999 965.945 425.78 965.965C426.581 965.984 427.323 966.023 428.007 966.082C428.69 966.121 429.266 966.18 429.735 966.258C430.204 966.316 430.468 966.375 430.526 966.434C430.604 966.531 430.643 966.756 430.643 967.107C430.663 967.459 430.643 967.85 430.585 968.279C430.546 968.689 430.477 969.09 430.38 969.48C430.302 969.852 430.214 970.096 430.116 970.213ZM428.944 960.838C428.71 961.131 428.427 961.443 428.095 961.775C427.782 962.107 427.47 962.43 427.157 962.742C426.845 963.035 426.552 963.299 426.278 963.533C426.024 963.748 425.829 963.885 425.692 963.943C425.477 964.041 425.233 964.012 424.96 963.855C424.686 963.699 424.54 963.484 424.52 963.211C424.52 963.133 424.598 962.947 424.755 962.654C424.911 962.342 425.096 962.01 425.311 961.658C425.526 961.307 425.741 960.965 425.956 960.633C426.171 960.301 426.337 960.066 426.454 959.93C426.591 959.773 426.679 959.666 426.718 959.607C426.757 959.549 426.825 959.5 426.923 959.461C427.098 959.344 427.333 959.285 427.626 959.285C427.919 959.266 428.212 959.295 428.505 959.373C428.798 959.432 429.042 959.529 429.237 959.666C429.432 959.803 429.511 959.939 429.471 960.076C429.452 960.154 429.384 960.271 429.266 960.428C429.149 960.584 429.042 960.721 428.944 960.838ZM442.011 965.027C442.069 965.105 441.962 965.506 441.688 966.229C441.434 966.932 441.073 967.84 440.604 968.953C440.136 970.066 439.589 971.326 438.964 972.732C438.339 974.119 437.694 975.525 437.03 976.951C437.577 978.338 438.095 979.695 438.583 981.023C439.071 982.332 439.491 983.504 439.843 984.539C440.214 985.555 440.487 986.375 440.663 987C440.858 987.645 440.917 987.977 440.839 987.996C440.702 988.016 440.497 987.947 440.223 987.791C439.97 987.635 439.696 987.439 439.403 987.205C439.11 986.971 438.837 986.727 438.583 986.473C438.348 986.219 438.173 985.994 438.055 985.799C437.763 985.193 437.46 984.578 437.147 983.953C436.835 983.309 436.552 982.723 436.298 982.195C436.005 981.57 435.721 980.965 435.448 980.379C434.94 981.414 434.452 982.391 433.983 983.309C433.534 984.227 433.134 985.027 432.782 985.711C432.43 986.395 432.128 986.932 431.874 987.322C431.639 987.732 431.493 987.938 431.434 987.938C431.259 987.938 431.102 987.84 430.966 987.645C430.848 987.449 430.741 987.215 430.643 986.941C430.565 986.668 430.516 986.395 430.497 986.121C430.477 985.828 430.487 985.584 430.526 985.389C430.917 984.334 431.298 983.289 431.669 982.254C432.04 981.219 432.382 980.291 432.694 979.471C433.046 978.514 433.388 977.605 433.72 976.746C433.27 975.789 432.831 974.852 432.401 973.934C431.971 972.996 431.581 972.137 431.229 971.355C430.897 970.574 430.624 969.9 430.409 969.334C430.175 968.768 430.028 968.357 429.97 968.104C429.872 967.693 429.901 967.303 430.057 966.932C430.214 966.541 430.409 966.199 430.643 965.906C430.878 965.613 431.122 965.389 431.376 965.232C431.63 965.076 431.815 965.027 431.932 965.086C432.011 965.145 432.157 965.379 432.372 965.789C432.587 966.18 432.841 966.707 433.134 967.371C433.446 968.035 433.788 968.816 434.159 969.715C434.53 970.594 434.921 971.531 435.331 972.527C435.839 971.238 436.298 970.105 436.708 969.129C437.118 968.133 437.44 967.469 437.675 967.137C437.929 966.727 438.29 966.375 438.759 966.082C439.227 965.77 439.686 965.525 440.136 965.35C440.604 965.154 441.014 965.037 441.366 964.998C441.737 964.939 441.952 964.949 442.011 965.027ZM449.013 968.777C448.68 968.797 448.348 968.807 448.016 968.807C447.704 968.787 447.411 968.777 447.138 968.777C446.825 968.777 446.532 968.768 446.259 968.748C446.298 969.783 446.307 970.994 446.288 972.381C446.288 973.748 446.268 975.154 446.229 976.6C446.21 978.045 446.171 979.461 446.112 980.848C446.073 982.215 446.024 983.426 445.966 984.48C446.708 984.461 447.362 984.461 447.929 984.48C448.495 984.5 448.798 984.529 448.837 984.568C448.876 984.627 448.876 984.822 448.837 985.154C448.798 985.467 448.739 985.818 448.661 986.209C448.583 986.58 448.505 986.922 448.427 987.234C448.348 987.566 448.29 987.771 448.251 987.85C447.704 987.869 447.196 987.869 446.727 987.85C446.278 987.85 445.888 987.83 445.555 987.791C445.165 987.771 444.813 987.742 444.501 987.703C444.188 987.645 443.856 987.576 443.505 987.498C443.212 987.42 442.87 987.322 442.479 987.205C442.108 987.088 441.727 986.941 441.337 986.766C441.259 986.727 441.161 986.619 441.044 986.443C440.946 986.268 440.839 986.082 440.721 985.887C440.624 985.672 440.546 985.467 440.487 985.271C440.409 985.076 440.37 984.939 440.37 984.861C440.37 984.842 440.458 984.822 440.634 984.803C440.809 984.764 441.054 984.734 441.366 984.715C441.679 984.676 442.03 984.646 442.421 984.627C442.811 984.588 443.231 984.559 443.68 984.539C443.641 983.973 443.583 983.23 443.505 982.312C443.446 981.375 443.378 980.369 443.3 979.295C443.241 978.201 443.173 977.088 443.095 975.955C443.036 974.803 442.987 973.738 442.948 972.762C442.909 971.766 442.889 970.896 442.889 970.154C442.889 969.412 442.919 968.895 442.977 968.602C442.997 968.562 443.007 968.533 443.007 968.514C443.007 968.475 443.016 968.436 443.036 968.396L442.216 968.191C441.981 968.133 441.727 968.064 441.454 967.986C441.18 967.908 440.907 967.82 440.634 967.723C440.555 967.684 440.458 967.576 440.341 967.4C440.204 967.225 440.077 967.029 439.96 966.814C439.823 966.6 439.716 966.404 439.638 966.229C439.54 966.033 439.491 965.896 439.491 965.818C439.491 965.779 439.745 965.74 440.253 965.701C440.741 965.643 441.356 965.594 442.098 965.555C442.841 965.516 443.641 965.486 444.501 965.467C445.38 965.447 446.19 965.438 446.932 965.438C447.694 965.438 448.329 965.447 448.837 965.467C449.364 965.467 449.647 965.486 449.686 965.525C449.745 965.584 449.745 965.779 449.686 966.111C449.647 966.424 449.579 966.775 449.481 967.166C449.403 967.537 449.315 967.889 449.218 968.221C449.139 968.533 449.071 968.719 449.013 968.777ZM455.78 967.752C455.741 967.693 455.673 967.635 455.575 967.576C455.497 967.518 455.399 967.469 455.282 967.43C455.165 967.391 455.048 967.381 454.93 967.4C454.833 967.4 454.755 967.439 454.696 967.518C454.638 967.615 454.53 967.986 454.374 968.631C454.237 969.256 454.091 970.037 453.934 970.975C453.778 971.912 453.641 972.957 453.524 974.109C453.407 975.262 453.348 976.404 453.348 977.537C453.348 978.357 453.378 979.217 453.436 980.115C453.495 980.994 453.563 981.805 453.641 982.547C453.739 983.289 453.846 983.904 453.964 984.393C454.1 984.861 454.237 985.096 454.374 985.096C454.511 985.115 454.696 984.969 454.93 984.656C455.165 984.344 455.389 983.992 455.604 983.602C455.819 983.191 456.014 982.801 456.19 982.43C456.386 982.039 456.513 981.775 456.571 981.639C456.649 981.424 456.757 981.189 456.893 980.936C457.03 980.662 457.167 980.418 457.304 980.203C457.44 979.969 457.577 979.783 457.714 979.646C457.85 979.49 457.968 979.412 458.065 979.412C458.182 979.412 458.28 979.529 458.358 979.764C458.456 979.998 458.524 980.281 458.563 980.613C458.622 980.926 458.661 981.258 458.68 981.609C458.7 981.941 458.71 982.215 458.71 982.43C458.71 982.82 458.632 983.309 458.475 983.895C458.339 984.48 458.153 985.047 457.919 985.594C457.704 986.141 457.46 986.609 457.186 987C456.932 987.391 456.688 987.576 456.454 987.557C456.22 987.537 455.839 987.4 455.311 987.146C454.804 986.893 454.276 986.6 453.729 986.268C453.182 985.936 452.684 985.604 452.235 985.271C451.786 984.939 451.522 984.676 451.444 984.48C451.346 984.305 451.2 983.885 451.005 983.221C450.829 982.537 450.643 981.717 450.448 980.76C450.253 979.803 450.077 978.748 449.921 977.596C449.784 976.443 449.716 975.281 449.716 974.109C449.716 972.938 449.725 971.785 449.745 970.652C449.764 969.5 449.804 968.475 449.862 967.576C449.94 966.678 450.057 965.955 450.214 965.408C450.37 964.842 450.585 964.539 450.858 964.5C451.405 964.441 452.001 964.48 452.645 964.617C453.29 964.734 453.934 964.92 454.579 965.174C455.223 965.428 455.839 965.721 456.425 966.053C457.03 966.365 457.567 966.697 458.036 967.049C458.505 967.381 458.876 967.703 459.149 968.016C459.442 968.328 459.598 968.592 459.618 968.807C459.638 969.139 459.598 969.51 459.501 969.92C459.403 970.33 459.286 970.73 459.149 971.121C459.013 971.492 458.866 971.834 458.71 972.146C458.573 972.439 458.466 972.645 458.388 972.762C458.29 972.898 458.173 973.045 458.036 973.201C457.899 973.357 457.753 973.494 457.596 973.611C457.46 973.729 457.313 973.816 457.157 973.875C457.02 973.914 456.893 973.885 456.776 973.787C456.698 973.729 456.62 973.543 456.542 973.23C456.483 972.918 456.415 972.547 456.337 972.117C456.278 971.688 456.22 971.229 456.161 970.74C456.102 970.232 456.044 969.764 455.985 969.334C455.946 968.904 455.907 968.543 455.868 968.25C455.829 967.957 455.8 967.791 455.78 967.752ZM461.112 968.133C461.21 967.957 461.415 967.732 461.727 967.459C462.04 967.166 462.411 966.873 462.841 966.58C463.29 966.287 463.768 966.023 464.276 965.789C464.784 965.535 465.292 965.369 465.8 965.291C466.327 965.193 466.815 965.213 467.264 965.35C467.733 965.467 468.134 965.74 468.466 966.17C468.641 966.385 468.807 966.814 468.964 967.459C469.12 968.104 469.266 968.885 469.403 969.803C469.559 970.701 469.696 971.707 469.813 972.82C469.93 973.914 470.028 975.037 470.106 976.189C470.184 977.322 470.233 978.445 470.253 979.559C470.292 980.652 470.292 981.668 470.253 982.605C470.233 983.523 470.175 984.314 470.077 984.979C469.999 985.623 469.872 986.072 469.696 986.326C469.345 986.834 468.798 987.176 468.055 987.352C467.313 987.527 466.532 987.527 465.712 987.352C464.891 987.195 464.11 986.863 463.368 986.355C462.626 985.848 462.079 985.164 461.727 984.305C461.493 983.738 461.298 982.967 461.141 981.99C461.005 981.014 460.897 979.959 460.819 978.826C460.741 977.674 460.692 976.502 460.673 975.311C460.673 974.119 460.682 973.025 460.702 972.029C460.741 971.014 460.79 970.154 460.848 969.451C460.927 968.748 461.014 968.309 461.112 968.133ZM466.854 982.986C466.971 982.869 467.05 982.557 467.089 982.049C467.147 981.521 467.177 980.906 467.177 980.203C467.196 979.48 467.196 978.719 467.177 977.918C467.177 977.117 467.177 976.375 467.177 975.691C467.177 973.953 467.118 972.605 467.001 971.648C466.884 970.691 466.747 969.979 466.591 969.51C466.415 968.963 466.22 968.621 466.005 968.484C465.712 968.543 465.468 968.641 465.272 968.777C465.077 968.895 464.921 969.031 464.804 969.188C464.667 969.363 464.559 969.549 464.481 969.744C464.423 969.92 464.354 970.262 464.276 970.77C464.218 971.277 464.159 971.883 464.1 972.586C464.042 973.27 463.983 974.021 463.925 974.842C463.886 975.643 463.846 976.434 463.807 977.215C463.788 977.996 463.768 978.738 463.749 979.441C463.749 980.125 463.759 980.691 463.778 981.141C463.817 981.824 463.973 982.322 464.247 982.635C464.54 982.947 464.852 983.152 465.184 983.25C465.516 983.328 465.839 983.328 466.151 983.25C466.483 983.172 466.718 983.084 466.854 982.986Z" fill="#E94560"/>
<defs>
<filter id="filter0_dd_0_1" x="0.705872" y="801" width="1928" height="288" filterUnits="userSpaceOnUse" color-interpolation-filters="sRGB">
<feFlood flood-opacity="0" result="BackgroundImageFix"/>
<feColorMatrix in="SourceAlpha" type="matrix" values="0 0 0 0 0 0 0 0 0 0 0 0 0 0 0 0 0 0 127 0" result="hardAlpha"/>
<feOffset dy="4"/>
<feGaussianBlur stdDeviation="2"/>
<feComposite in2="hardAlpha" operator="out"/>
<feColorMatrix type="matrix" values="0 0 0 0 0 0 0 0 0 0 0 0 0 0 0 0 0 0 0.25 0"/>
<feBlend mode="normal" in2="BackgroundImageFix" result="effect1_dropShadow_0_1"/>
<feColorMatrix in="SourceAlpha" type="matrix" values="0 0 0 0 0 0 0 0 0 0 0 0 0 0 0 0 0 0 127 0" result="hardAlpha"/>
<feOffset dy="4"/>
<feGaussianBlur stdDeviation="2"/>
<feComposite in2="hardAlpha" operator="out"/>
<feColorMatrix type="matrix" values="0 0 0 0 0 0 0 0 0 0 0 0 0 0 0 0 0 0 0.25 0"/>
<feBlend mode="normal" in2="effect1_dropShadow_0_1" result="effect2_dropShadow_0_1"/>
<feBlend mode="normal" in="SourceGraphic" in2="effect2_dropShadow_0_1" result="shape"/>
</filter>
</defs>
</svg>
