<svg width="1920" height="1080" viewBox="0 0 1920 1080" fill="none" xmlns="http://www.w3.org/2000/svg">
<rect width="1920" height="1080" fill="#1E1E1E"/>
<rect width="1920" height="1080" fill="#0047AB"/>
<path d="M827.345 413.82L796 454L839.099 445.18L884.157 454L912.237 437.34L967.091 443.71L996.476 428.52L1034.35 445.18L1071.57 428.52L1099 437.34L1071.57 413.82L1034.35 428.52L996.476 405L957.295 428.52L912.237 413.82L872.403 437.34L827.345 413.82Z" fill="#CC6600" stroke="#FF8C00"/>
<path d="M716.586 455.26L657 502L738.931 491.74L824.586 502L877.966 482.62L982.241 490.03L1038.1 472.36L1110.1 491.74L1180.86 472.36L1233 482.62L1180.86 455.26L1110.1 472.36L1038.1 445L963.621 472.36L877.966 455.26L802.241 482.62L716.586 455.26Z" fill="#FF8C00" stroke="#FF8C00"/>
<path d="M568.207 499.8L457 549L609.909 538.2L769.769 549L869.392 528.6L1064 536.4L1168.26 517.8L1302.64 538.2L1434.69 517.8L1532 528.6L1434.69 499.8L1302.64 517.8L1168.26 489L1029.25 517.8L869.392 499.8L728.067 528.6L568.207 499.8Z" fill="#CC6600" stroke="#FF8C00"/>
<path d="M587.862 548.46L484 587L626.81 578.54L776.112 587L869.155 571.02L1050.91 577.13L1148.28 562.56L1273.78 578.54L1397.12 562.56L1488 571.02L1397.12 548.46L1273.78 562.56L1148.28 540L1018.46 562.56L869.155 548.46L737.164 571.02L587.862 548.46Z" fill="#FF8C00" stroke="#FF8C00"/>
<path d="M641.862 580.28L562 618L671.81 609.72L786.612 618L858.155 602.36L997.914 608.34L1072.78 594.08L1169.28 609.72L1264.12 594.08L1334 602.36L1264.12 580.28L1169.28 594.08L1072.78 572L972.957 594.08L858.155 580.28L756.664 602.36L641.862 580.28Z" fill="#CC6600" stroke="#FF8C00"/>
<path d="M751.207 607.76L700 634L770.409 628.24L844.019 634L889.892 623.12L979.504 627.28L1027.51 617.36L1089.39 628.24L1150.19 617.36L1195 623.12L1150.19 607.76L1089.39 617.36L1027.51 602L963.502 617.36L889.892 607.76L824.817 623.12L751.207 607.76Z" fill="#FF8C00" stroke="#FF8C00"/>
<path d="M849.345 631.32L818 692L861.099 678.68L906.157 692L934.237 666.84L989.091 676.46L1018.48 653.52L1056.35 678.68L1093.57 653.52L1121 666.84L1093.57 631.32L1056.35 653.52L1018.48 618L979.295 653.52L934.237 631.32L894.403 666.84L849.345 631.32Z" fill="#CC6600" stroke="#FF8C00"/>
<ellipse cx="960" cy="540" rx="150" ry="110" fill="#FF8C00"/>
<ellipse opacity="0.6" cx="910" cy="485" rx="60" ry="40" fill="#FFD700"/>
<path d="M723.602 759.008C723.445 758.773 723.172 758.539 722.781 758.305C722.469 758.07 722.078 757.875 721.609 757.719C721.141 757.562 720.672 757.523 720.203 757.602C719.812 757.602 719.5 757.758 719.266 758.07C719.031 758.461 718.602 759.945 717.977 762.523C717.43 765.023 716.844 768.148 716.219 771.898C715.594 775.648 715.047 779.828 714.578 784.438C714.109 789.047 713.875 793.617 713.875 798.148C713.875 801.43 713.992 804.867 714.227 808.461C714.461 811.977 714.734 815.219 715.047 818.188C715.438 821.156 715.867 823.617 716.336 825.57C716.883 827.445 717.43 828.383 717.977 828.383C718.523 828.461 719.266 827.875 720.203 826.625C721.141 825.375 722.039 823.969 722.898 822.406C723.758 820.766 724.539 819.203 725.242 817.719C726.023 816.156 726.531 815.102 726.766 814.555C727.078 813.695 727.508 812.758 728.055 811.742C728.602 810.648 729.148 809.672 729.695 808.812C730.242 807.875 730.789 807.133 731.336 806.586C731.883 805.961 732.352 805.648 732.742 805.648C733.211 805.648 733.602 806.117 733.914 807.055C734.305 807.992 734.578 809.125 734.734 810.453C734.969 811.703 735.125 813.031 735.203 814.438C735.281 815.766 735.32 816.859 735.32 817.719C735.32 819.281 735.008 821.234 734.383 823.578C733.836 825.922 733.094 828.188 732.156 830.375C731.297 832.562 730.32 834.438 729.227 836C728.211 837.562 727.234 838.305 726.297 838.227C725.359 838.148 723.836 837.602 721.727 836.586C719.695 835.57 717.586 834.398 715.398 833.07C713.211 831.742 711.219 830.414 709.422 829.086C707.625 827.758 706.57 826.703 706.258 825.922C705.867 825.219 705.281 823.539 704.5 820.883C703.797 818.148 703.055 814.867 702.273 811.039C701.492 807.211 700.789 802.992 700.164 798.383C699.617 793.773 699.344 789.125 699.344 784.438C699.344 779.75 699.383 775.141 699.461 770.609C699.539 766 699.695 761.898 699.93 758.305C700.242 754.711 700.711 751.82 701.336 749.633C701.961 747.367 702.82 746.156 703.914 746C706.102 745.766 708.484 745.922 711.062 746.469C713.641 746.938 716.219 747.68 718.797 748.695C721.375 749.711 723.836 750.883 726.18 752.211C728.602 753.461 730.75 754.789 732.625 756.195C734.5 757.523 735.984 758.812 737.078 760.062C738.25 761.312 738.875 762.367 738.953 763.227C739.031 764.555 738.875 766.039 738.484 767.68C738.094 769.32 737.625 770.922 737.078 772.484C736.531 773.969 735.945 775.336 735.32 776.586C734.773 777.758 734.344 778.578 734.031 779.047C733.641 779.594 733.172 780.18 732.625 780.805C732.078 781.43 731.492 781.977 730.867 782.445C730.32 782.914 729.734 783.266 729.109 783.5C728.562 783.656 728.055 783.539 727.586 783.148C727.273 782.914 726.961 782.172 726.648 780.922C726.414 779.672 726.141 778.188 725.828 776.469C725.594 774.75 725.359 772.914 725.125 770.961C724.891 768.93 724.656 767.055 724.422 765.336C724.266 763.617 724.109 762.172 723.953 761C723.797 759.828 723.68 759.164 723.602 759.008ZM777.391 745.766C777.625 746.078 777.898 747.68 778.211 750.57C778.602 753.383 778.992 756.898 779.383 761.117C779.852 765.336 780.32 769.945 780.789 774.945C781.258 779.867 781.688 784.633 782.078 789.242C782.469 793.773 782.82 797.836 783.133 801.43C783.445 804.945 783.68 807.406 783.836 808.812C784.07 810.922 784.422 813.5 784.891 816.547C785.438 819.594 785.945 822.602 786.414 825.57C786.961 828.461 787.391 831 787.703 833.188C788.016 835.375 788.055 836.664 787.82 837.055C787.586 837.445 786.805 837.406 785.477 836.938C784.148 836.469 782.703 835.805 781.141 834.945C779.578 834.086 778.094 833.148 776.688 832.133C775.359 831.117 774.5 830.258 774.109 829.555C773.719 828.773 773.289 827.484 772.82 825.688C772.352 823.812 771.844 821.352 771.297 818.305C770.281 820.18 769.148 822.094 767.898 824.047C766.648 826 765.438 827.797 764.266 829.438C763.094 831.078 762 832.445 760.984 833.539C760.047 834.555 759.344 835.023 758.875 834.945C758.094 834.867 756.883 833.852 755.242 831.898C753.68 829.867 752.078 827.602 750.438 825.102C748.797 822.523 747.312 820.102 745.984 817.836C744.734 815.492 744.031 813.93 743.875 813.148C743.797 812.68 743.758 811.625 743.758 809.984C743.758 808.266 743.758 806.234 743.758 803.891C743.836 801.547 743.914 799.008 743.992 796.273C744.148 793.461 744.266 790.727 744.344 788.07C744.5 785.336 744.617 782.758 744.695 780.336C744.852 777.914 745.008 775.922 745.164 774.359C745.32 771.938 745.516 769.438 745.75 766.859C746.062 764.203 746.336 761.742 746.57 759.477C746.883 757.211 747.156 755.297 747.391 753.734C747.703 752.094 747.977 751.078 748.211 750.688C748.367 750.375 748.836 750.18 749.617 750.102C750.477 750.023 751.414 750.102 752.43 750.336C753.445 750.492 754.383 750.805 755.242 751.273C756.102 751.664 756.688 752.172 757 752.797C757.156 753.188 757.234 754.75 757.234 757.484C757.312 760.141 757.352 763.344 757.352 767.094C757.352 770.844 757.312 774.906 757.234 779.281C757.234 783.578 757.195 787.641 757.117 791.469C757.039 795.297 756.961 798.578 756.883 801.312C756.883 803.969 756.883 805.531 756.883 806C756.883 806.859 757.469 808.227 758.641 810.102C759.891 811.898 761.023 814.086 762.039 816.664L769.422 808.344C769.344 806.156 769.266 803.344 769.188 799.906C769.188 796.469 769.148 792.836 769.07 789.008C768.992 785.102 768.914 781.195 768.836 777.289C768.836 773.305 768.836 769.672 768.836 766.391C768.836 763.109 768.836 760.414 768.836 758.305C768.914 756.117 768.992 754.867 769.07 754.555C769.305 753.93 769.773 753.031 770.477 751.859C771.258 750.609 772.078 749.477 772.938 748.461C773.797 747.367 774.656 746.508 775.516 745.883C776.375 745.258 777 745.219 777.391 745.766ZM793.562 839.633C793.406 839.242 793.328 837.836 793.328 835.414C793.328 832.992 793.328 829.945 793.328 826.273C793.406 822.602 793.484 818.5 793.562 813.969C793.719 809.359 793.836 804.711 793.914 800.023C794.07 795.258 794.227 790.648 794.383 786.195C794.539 781.664 794.656 777.641 794.734 774.125C794.891 770.609 795.008 767.758 795.086 765.57C795.164 763.305 795.242 762.094 795.32 761.938C795.398 761.625 795.75 760.844 796.375 759.594C797 758.344 797.703 757.055 798.484 755.727C799.344 754.32 800.203 753.109 801.062 752.094C801.922 751 802.664 750.492 803.289 750.57C803.523 750.648 803.719 752.211 803.875 755.258C804.109 758.227 804.305 762.055 804.461 766.742C804.695 771.43 804.852 776.625 804.93 782.328C805.086 787.953 805.203 793.461 805.281 798.852C805.438 804.164 805.555 809.008 805.633 813.383C805.711 817.68 805.789 820.844 805.867 822.875C808.367 823.109 810.867 823.305 813.367 823.461C815.945 823.617 818.25 823.812 820.281 824.047C822.312 824.203 823.953 824.359 825.203 824.516C826.531 824.672 827.234 824.789 827.312 824.867C827.547 825.18 827.859 825.922 828.25 827.094C828.719 828.188 829.148 829.398 829.539 830.727C829.93 831.977 830.203 833.148 830.359 834.242C830.594 835.336 830.555 836 830.242 836.234C821.258 837.875 814.305 838.969 809.383 839.516C804.461 840.062 800.828 840.336 798.484 840.336C795.75 840.336 794.109 840.102 793.562 839.633ZM865.633 768.852C865.32 769.242 863.406 769.281 859.891 768.969C856.375 768.656 850.828 768.148 843.25 767.445C843.25 770.023 843.25 773.188 843.25 776.938C843.328 780.688 843.328 784.711 843.25 789.008C849.109 789.555 853.68 790.062 856.961 790.531C860.242 791 861.961 791.312 862.117 791.469C862.43 791.781 862.547 792.445 862.469 793.461C862.391 794.398 862.195 795.453 861.883 796.625C861.57 797.797 861.18 798.93 860.711 800.023C860.242 801.039 859.773 801.703 859.305 802.016C858.914 802.172 857.352 802.406 854.617 802.719C851.961 802.953 848.172 803.188 843.25 803.422C843.25 806.781 843.211 810.102 843.133 813.383C843.133 816.664 843.094 819.672 843.016 822.406C850.594 822.484 856.102 822.641 859.539 822.875C863.055 823.031 864.969 823.266 865.281 823.578C865.594 823.969 865.594 824.711 865.281 825.805C865.047 826.898 864.617 828.07 863.992 829.32C863.445 830.492 862.82 831.664 862.117 832.836C861.492 834.008 860.984 834.828 860.594 835.297C860.438 835.453 859.5 835.531 857.781 835.531C856.062 835.453 854.148 835.336 852.039 835.18C849.93 835.023 847.898 834.867 845.945 834.711C843.992 834.477 842.703 834.281 842.078 834.125C840.906 833.734 839.656 833.109 838.328 832.25C837 831.312 835.945 830.141 835.164 828.734C835.008 828.344 834.734 827.055 834.344 824.867C834.031 822.602 833.68 819.75 833.289 816.312C832.898 812.875 832.508 809.008 832.117 804.711C831.727 800.414 831.336 796.039 830.945 791.586C830.555 787.133 830.203 782.758 829.891 778.461C829.578 774.164 829.305 770.297 829.07 766.859C828.914 763.344 828.836 760.453 828.836 758.188C828.836 755.844 828.953 754.438 829.188 753.969C829.422 753.344 830.516 752.875 832.469 752.562C834.422 752.25 836.766 752.055 839.5 751.977C842.234 751.82 845.164 751.781 848.289 751.859C851.492 751.938 854.461 752.094 857.195 752.328C859.93 752.484 862.234 752.719 864.109 753.031C865.984 753.266 867.039 753.5 867.273 753.734C867.586 754.125 867.742 755.023 867.742 756.43C867.82 757.836 867.742 759.398 867.508 761.117C867.352 762.758 867.078 764.359 866.688 765.922C866.375 767.406 866.023 768.383 865.633 768.852ZM896.453 790.062C898.25 791 900.047 792.016 901.844 793.109C903.719 794.203 905.438 795.258 907 796.273C908.562 797.211 909.852 798.109 910.867 798.969C911.961 799.75 912.664 800.375 912.977 800.844C913.367 801.469 913.562 802.445 913.562 803.773C913.562 805.023 913.445 806.43 913.211 807.992C913.055 809.477 912.781 810.961 912.391 812.445C912 813.852 911.57 814.984 911.102 815.844C910.555 816.938 909.305 818.344 907.352 820.062C905.477 821.781 903.367 823.5 901.023 825.219C898.68 826.938 896.375 828.461 894.109 829.789C891.922 831.117 890.242 831.938 889.07 832.25C888.211 832.484 886.922 832.719 885.203 832.953C883.562 833.188 881.844 833.383 880.047 833.539C878.25 833.695 876.609 833.812 875.125 833.891C873.719 833.891 872.859 833.812 872.547 833.656C871.922 833.266 871.375 832.68 870.906 831.898C870.516 831.117 870.32 830.102 870.32 828.852C870.477 826.117 870.789 824.242 871.258 823.227C871.414 822.992 871.609 822.875 871.844 822.875C872.078 822.797 872.469 822.758 873.016 822.758C873.562 822.758 874.266 822.758 875.125 822.758C875.984 822.758 877.117 822.719 878.523 822.641C878.133 818.656 877.781 814.867 877.469 811.273C877.156 807.68 876.883 804.516 876.648 801.781C876.336 798.578 876.102 795.57 875.945 792.758C875.789 790.023 875.555 786.977 875.242 783.617C875.008 780.727 874.734 777.367 874.422 773.539C874.109 769.711 873.758 765.57 873.367 761.117C872.664 761.117 871.844 761.117 870.906 761.117C869.969 761.117 869.031 761.117 868.094 761.117C867.234 761.039 866.492 760.961 865.867 760.883C865.164 760.727 864.734 760.531 864.578 760.297C864.266 759.828 864.031 758.969 863.875 757.719C863.719 756.391 863.641 755.102 863.641 753.852C863.641 752.523 863.875 751.234 864.344 749.984C864.812 748.656 865.359 747.797 865.984 747.406C866.141 747.328 866.766 747.328 867.859 747.406C868.953 747.406 870.281 747.523 871.844 747.758C873.406 747.914 875.086 748.148 876.883 748.461C878.758 748.695 880.516 748.969 882.156 749.281C883.797 749.516 885.242 749.75 886.492 749.984C887.742 750.219 888.602 750.375 889.07 750.453C889.852 750.609 891.336 751.039 893.523 751.742C895.789 752.367 898.211 753.109 900.789 753.969C903.367 754.828 905.828 755.805 908.172 756.898C910.516 757.914 912.156 758.93 913.094 759.945C913.484 760.336 913.836 761.43 914.148 763.227C914.539 765.023 914.812 767.016 914.969 769.203C915.203 771.391 915.281 773.461 915.203 775.414C915.203 777.289 915.008 778.539 914.617 779.164C914.305 779.633 913.211 780.453 911.336 781.625C909.461 782.797 907.391 784.008 905.125 785.258C902.547 786.664 899.656 788.266 896.453 790.062ZM887.547 787.719C888.562 787.25 889.93 786.312 891.648 784.906C893.445 783.5 895.203 781.938 896.922 780.219C898.719 778.422 900.242 776.625 901.492 774.828C902.82 772.953 903.484 771.352 903.484 770.023C903.484 769.633 903.055 769.125 902.195 768.5C901.414 767.875 900.32 767.25 898.914 766.625C897.508 766 895.828 765.375 893.875 764.75C892 764.047 889.969 763.422 887.781 762.875L887.547 787.719ZM887.43 821.352C889.617 820.883 891.688 820.141 893.641 819.125C895.594 818.109 897.312 817.016 898.797 815.844C900.281 814.594 901.453 813.344 902.312 812.094C903.172 810.844 903.602 809.711 903.602 808.695C903.602 807.68 902.938 806.547 901.609 805.297C900.359 804.047 898.836 802.797 897.039 801.547C895.32 800.297 893.562 799.164 891.766 798.148C889.969 797.133 888.562 796.391 887.547 795.922L887.43 821.352ZM962.664 761.586C963.055 762.055 963.445 763.383 963.836 765.57C964.227 767.758 964.5 770.141 964.656 772.719C964.891 775.297 964.969 777.719 964.891 779.984C964.891 782.25 964.695 783.734 964.305 784.438C963.992 784.906 963.211 785.766 961.961 787.016C960.711 788.188 959.266 789.516 957.625 791C955.984 792.484 954.266 793.969 952.469 795.453C950.75 796.859 949.227 798.07 947.898 799.086C948.523 800.336 949.305 801.977 950.242 804.008C951.18 805.961 952.195 808.07 953.289 810.336C954.383 812.523 955.438 814.789 956.453 817.133C957.547 819.477 958.523 821.625 959.383 823.578C960.242 825.453 960.945 827.055 961.492 828.383C962.039 829.633 962.312 830.375 962.312 830.609C962.312 831 962.117 831.547 961.727 832.25C961.414 832.953 960.984 833.617 960.438 834.242C959.891 834.789 959.305 835.258 958.68 835.648C958.055 836.039 957.469 836.117 956.922 835.883C956.609 835.805 956.023 835.18 955.164 834.008C954.305 832.758 953.25 831.234 952 829.438C950.828 827.562 949.5 825.453 948.016 823.109C946.609 820.766 945.164 818.422 943.68 816.078C942.195 813.656 940.789 811.352 939.461 809.164C938.133 806.898 936.961 804.906 935.945 803.188C935.789 811.312 935.594 817.562 935.359 821.938C935.203 826.312 935.086 829.516 935.008 831.547C934.852 833.969 934.695 835.336 934.539 835.648C934.305 835.648 933.797 835.336 933.016 834.711C932.234 834.008 931.414 833.188 930.555 832.25C929.695 831.312 928.875 830.375 928.094 829.438C927.391 828.5 926.961 827.797 926.805 827.328C926.648 826.312 926.414 823.383 926.102 818.539C925.945 816.43 925.789 813.812 925.633 810.688C925.477 807.562 925.281 803.773 925.047 799.32C924.891 794.867 924.656 789.633 924.344 783.617C924.031 777.602 923.719 770.688 923.406 762.875C922 762.797 920.867 762.797 920.008 762.875C919.148 762.875 918.484 762.914 918.016 762.992C917.547 763.07 917.195 763.109 916.961 763.109C916.727 763.031 916.531 762.836 916.375 762.523C916.062 761.898 915.828 760.844 915.672 759.359C915.516 757.797 915.438 756.312 915.438 754.906C915.438 753.344 915.672 751.781 916.141 750.219C916.531 748.656 917.039 747.68 917.664 747.289C917.977 747.055 919.07 747.094 920.945 747.406C922.82 747.641 924.891 747.953 927.156 748.344C929.422 748.734 931.57 749.164 933.602 749.633C935.711 750.102 937.078 750.414 937.703 750.57C938.25 750.727 939.148 751 940.398 751.391C941.648 751.703 943.094 752.172 944.734 752.797C946.375 753.344 948.094 753.969 949.891 754.672C951.766 755.375 953.523 756.117 955.164 756.898C956.805 757.68 958.289 758.461 959.617 759.242C960.945 760.023 961.961 760.805 962.664 761.586ZM936.297 794.633C937 794.242 937.938 793.5 939.109 792.406C940.281 791.234 941.531 789.945 942.859 788.539C944.266 787.055 945.672 785.531 947.078 783.969C948.484 782.328 949.734 780.805 950.828 779.398C952 777.992 952.938 776.781 953.641 775.766C954.344 774.75 954.695 774.086 954.695 773.773C954.695 773.227 954.188 772.602 953.172 771.898C952.234 771.117 950.984 770.336 949.422 769.555C947.859 768.773 946.023 768.031 943.914 767.328C941.805 766.547 939.656 765.883 937.469 765.336L936.297 794.633ZM1018.91 804.711C1019.07 804.945 1019.03 805.727 1018.8 807.055C1018.64 808.383 1018.37 809.828 1017.98 811.391C1017.66 812.953 1017.31 814.438 1016.92 815.844C1016.61 817.172 1016.34 817.953 1016.1 818.188H1014.93C1014.7 818.188 1014.46 818.148 1014.23 818.07C1014.62 821.82 1014.93 824.828 1015.16 827.094C1015.4 829.359 1015.52 830.609 1015.52 830.844C1015.52 831.391 1015.24 832.172 1014.7 833.188C1014.23 834.203 1013.68 835.141 1013.05 836C1012.43 836.859 1011.77 837.523 1011.06 837.992C1010.44 838.539 1010.01 838.578 1009.77 838.109C1009.38 837.406 1008.56 835.297 1007.31 831.781C1006.06 828.266 1004.66 823.461 1003.09 817.367C1001.53 817.211 999.891 817.055 998.172 816.898C996.531 816.742 994.852 816.586 993.133 816.43C991.414 816.273 989.695 816.078 987.977 815.844C986.336 815.531 984.734 815.258 983.172 815.023C982.391 818.461 981.609 821.703 980.828 824.75C980.125 827.797 979.422 830.453 978.719 832.719C978.094 834.984 977.547 836.781 977.078 838.109C976.609 839.438 976.258 840.102 976.023 840.102C975.398 840.102 974.773 839.711 974.148 838.93C973.523 838.148 972.938 837.211 972.391 836.117C971.922 835.023 971.531 833.891 971.219 832.719C970.906 831.547 970.75 830.57 970.75 829.789C970.906 827.992 971.102 826.117 971.336 824.164C971.648 822.211 971.883 820.414 972.039 818.773C972.273 816.82 972.508 814.906 972.742 813.031H972.273C971.961 812.875 971.531 812.523 970.984 811.977C970.438 811.43 969.891 810.883 969.344 810.336C968.797 809.711 968.328 809.125 967.938 808.578C967.547 807.953 967.352 807.484 967.352 807.172C967.352 807.016 967.898 806.859 968.992 806.703C970.164 806.547 971.688 806.391 973.562 806.234C974.188 801.547 974.852 796.664 975.555 791.586C976.258 786.508 976.961 781.742 977.664 777.289C978.367 772.836 979.031 768.969 979.656 765.688C980.359 762.328 980.945 760.023 981.414 758.773C982.195 756.664 983.562 754.789 985.516 753.148C987.469 751.43 989.5 750.023 991.609 748.93C993.797 747.758 995.867 746.859 997.82 746.234C999.773 745.609 1001.22 745.297 1002.16 745.297C1002.55 745.297 1002.98 746.195 1003.45 747.992C1003.99 749.711 1004.54 752.055 1005.09 755.023C1005.71 757.992 1006.34 761.469 1006.96 765.453C1007.66 769.359 1008.33 773.5 1008.95 777.875C1009.58 782.25 1010.16 786.742 1010.71 791.352C1011.34 795.883 1011.92 800.219 1012.47 804.359C1016.38 804.359 1018.52 804.477 1018.91 804.711ZM985.398 805.414C987.898 805.258 990.398 805.141 992.898 805.062C995.398 804.984 997.859 804.867 1000.28 804.711C999.656 801.664 998.953 798.266 998.172 794.516C997.547 791.312 996.805 787.562 995.945 783.266C995.086 778.969 994.227 774.242 993.367 769.086C992.43 773.695 991.492 778.188 990.555 782.562C989.617 786.859 988.758 790.727 987.977 794.164C987.117 798.148 986.258 801.898 985.398 805.414ZM1035.2 824.75C1033.72 819.672 1032.12 813.695 1030.4 806.82C1028.91 800.961 1027.2 793.812 1025.24 785.375C1023.29 776.938 1021.22 767.25 1019.03 756.312C1019.03 755.531 1019.46 754.633 1020.32 753.617C1021.18 752.523 1022.2 751.508 1023.37 750.57C1024.62 749.633 1025.91 748.812 1027.23 748.109C1028.56 747.406 1029.7 747.055 1030.63 747.055C1031.18 747.68 1031.92 750.336 1032.86 755.023C1033.25 757.055 1033.72 759.594 1034.27 762.641C1034.89 765.688 1035.55 769.477 1036.26 774.008C1036.96 778.461 1037.74 783.695 1038.6 789.711C1039.46 795.727 1040.44 802.719 1041.53 810.688C1042.31 805.297 1043.09 800.219 1043.88 795.453C1044.66 790.609 1045.36 786.312 1045.98 782.562C1046.77 778.266 1047.47 774.281 1048.09 770.609C1048.41 768.344 1048.76 765.961 1049.15 763.461C1049.62 760.883 1050.09 758.539 1050.55 756.43C1051.02 754.32 1051.49 752.562 1051.96 751.156C1052.51 749.75 1053.09 749.047 1053.72 749.047C1054.27 748.969 1055.16 749.047 1056.41 749.281C1057.74 749.516 1059.03 749.867 1060.28 750.336C1061.53 750.727 1062.62 751.195 1063.56 751.742C1064.58 752.289 1065.09 752.836 1065.09 753.383C1065.09 753.695 1064.77 755.18 1064.15 757.836C1063.6 760.492 1062.78 763.891 1061.69 768.031C1060.67 772.094 1059.5 776.703 1058.17 781.859C1056.92 787.016 1055.55 792.289 1054.07 797.68C1052.66 802.992 1051.26 808.188 1049.85 813.266C1048.45 818.344 1047.16 822.875 1045.98 826.859C1044.81 830.766 1043.8 833.93 1042.94 836.352C1042.16 838.773 1041.61 839.984 1041.3 839.984C1040.98 839.984 1040.16 838.617 1038.84 835.883C1037.51 833.07 1036.3 829.359 1035.2 824.75ZM1095.32 763.109C1093.99 763.188 1092.66 763.227 1091.34 763.227C1090.09 763.148 1088.91 763.109 1087.82 763.109C1086.57 763.109 1085.4 763.07 1084.3 762.992C1084.46 767.133 1084.5 771.977 1084.42 777.523C1084.42 782.992 1084.34 788.617 1084.19 794.398C1084.11 800.18 1083.95 805.844 1083.72 811.391C1083.56 816.859 1083.37 821.703 1083.13 825.922C1086.1 825.844 1088.72 825.844 1090.98 825.922C1093.25 826 1094.46 826.117 1094.62 826.273C1094.77 826.508 1094.77 827.289 1094.62 828.617C1094.46 829.867 1094.23 831.273 1093.91 832.836C1093.6 834.32 1093.29 835.688 1092.98 836.938C1092.66 838.266 1092.43 839.086 1092.27 839.398C1090.09 839.477 1088.05 839.477 1086.18 839.398C1084.38 839.398 1082.82 839.32 1081.49 839.164C1079.93 839.086 1078.52 838.969 1077.27 838.812C1076.02 838.578 1074.7 838.305 1073.29 837.992C1072.12 837.68 1070.75 837.289 1069.19 836.82C1067.7 836.352 1066.18 835.766 1064.62 835.062C1064.3 834.906 1063.91 834.477 1063.45 833.773C1063.05 833.07 1062.62 832.328 1062.16 831.547C1061.77 830.688 1061.45 829.867 1061.22 829.086C1060.91 828.305 1060.75 827.758 1060.75 827.445C1060.75 827.367 1061.1 827.289 1061.8 827.211C1062.51 827.055 1063.48 826.938 1064.73 826.859C1065.98 826.703 1067.39 826.586 1068.95 826.508C1070.52 826.352 1072.2 826.234 1073.99 826.156C1073.84 823.891 1073.6 820.922 1073.29 817.25C1073.05 813.5 1072.78 809.477 1072.47 805.18C1072.23 800.805 1071.96 796.352 1071.65 791.82C1071.41 787.211 1071.22 782.953 1071.06 779.047C1070.91 775.062 1070.83 771.586 1070.83 768.617C1070.83 765.648 1070.95 763.578 1071.18 762.406C1071.26 762.25 1071.3 762.133 1071.3 762.055C1071.3 761.898 1071.34 761.742 1071.41 761.586L1068.13 760.766C1067.2 760.531 1066.18 760.258 1065.09 759.945C1063.99 759.633 1062.9 759.281 1061.8 758.891C1061.49 758.734 1061.1 758.305 1060.63 757.602C1060.09 756.898 1059.58 756.117 1059.11 755.258C1058.56 754.398 1058.13 753.617 1057.82 752.914C1057.43 752.133 1057.23 751.586 1057.23 751.273C1057.23 751.117 1058.25 750.961 1060.28 750.805C1062.23 750.57 1064.7 750.375 1067.66 750.219C1070.63 750.062 1073.84 749.945 1077.27 749.867C1080.79 749.789 1084.03 749.75 1087 749.75C1090.05 749.75 1092.59 749.789 1094.62 749.867C1096.73 749.867 1097.86 749.945 1098.02 750.102C1098.25 750.336 1098.25 751.117 1098.02 752.445C1097.86 753.695 1097.59 755.102 1097.2 756.664C1096.88 758.148 1096.53 759.555 1096.14 760.883C1095.83 762.133 1095.55 762.875 1095.32 763.109ZM1140.44 765.102C1140.52 766.273 1140.36 768.031 1139.97 770.375C1139.66 772.719 1139.11 775.062 1138.33 777.406C1137.55 779.75 1136.53 781.82 1135.28 783.617C1134.11 785.336 1132.74 786.195 1131.18 786.195C1130.4 786.195 1129.73 785.727 1129.19 784.789C1128.64 783.852 1128.17 782.641 1127.78 781.156C1127.39 779.672 1127.08 778.031 1126.84 776.234C1126.61 774.359 1126.38 772.562 1126.14 770.844C1125.98 769.125 1125.83 767.562 1125.67 766.156C1125.59 764.672 1125.52 763.578 1125.44 762.875C1125.12 762.406 1124.54 761.938 1123.68 761.469C1122.9 760.922 1122.2 760.648 1121.57 760.648C1120.87 760.648 1120.01 761.312 1118.99 762.641C1118.05 763.969 1117.16 765.531 1116.3 767.328C1115.44 769.125 1114.73 770.922 1114.19 772.719C1113.64 774.438 1113.41 775.766 1113.48 776.703C1113.48 777.328 1114.07 778.422 1115.24 779.984C1116.49 781.547 1118.02 783.383 1119.81 785.492C1121.61 787.602 1123.56 789.906 1125.67 792.406C1127.78 794.828 1129.73 797.25 1131.53 799.672C1133.33 802.094 1134.85 804.398 1136.1 806.586C1137.35 808.773 1138.02 810.648 1138.09 812.211C1138.25 814.086 1137.82 816.508 1136.8 819.477C1135.87 822.367 1134.66 825.18 1133.17 827.914C1131.69 830.648 1130.09 833.031 1128.37 835.062C1126.73 837.016 1125.24 838.031 1123.91 838.109C1123.05 838.188 1121.92 837.797 1120.52 836.938C1119.11 836.156 1117.59 835.102 1115.95 833.773C1114.3 832.445 1112.62 831 1110.91 829.438C1109.27 827.797 1107.7 826.195 1106.22 824.633C1104.81 823.07 1103.6 821.664 1102.59 820.414C1101.65 819.086 1101.1 818.109 1100.95 817.484C1100.63 816.547 1100.44 815.297 1100.36 813.734C1100.36 812.094 1100.44 810.531 1100.59 809.047C1100.83 807.484 1101.1 806.156 1101.41 805.062C1101.8 803.891 1102.27 803.305 1102.82 803.305C1103.21 803.305 1103.84 803.812 1104.7 804.828C1105.63 805.844 1106.69 807.133 1107.86 808.695C1109.03 810.258 1110.28 811.977 1111.61 813.852C1113.02 815.648 1114.34 817.328 1115.59 818.891C1116.84 820.453 1117.98 821.781 1118.99 822.875C1120.01 823.891 1120.83 824.359 1121.45 824.281C1121.92 824.281 1122.43 823.93 1122.98 823.227C1123.52 822.445 1124.03 821.547 1124.5 820.531C1124.97 819.438 1125.36 818.344 1125.67 817.25C1125.98 816.156 1126.14 815.297 1126.14 814.672C1126.06 813.734 1125.28 812.406 1123.8 810.688C1122.39 808.891 1120.59 806.898 1118.41 804.711C1116.3 802.445 1113.99 800.102 1111.49 797.68C1109.07 795.258 1106.77 792.953 1104.58 790.766C1102.47 788.5 1100.67 786.469 1099.19 784.672C1097.78 782.875 1097.04 781.508 1096.96 780.57C1096.88 779.633 1097.16 778.188 1097.78 776.234C1098.41 774.203 1099.23 771.938 1100.24 769.438C1101.34 766.938 1102.55 764.398 1103.88 761.82C1105.2 759.242 1106.57 756.859 1107.98 754.672C1109.38 752.484 1110.75 750.727 1112.08 749.398C1113.41 747.992 1114.58 747.289 1115.59 747.289C1116.92 747.289 1118.45 747.602 1120.16 748.227C1121.88 748.773 1123.64 749.555 1125.44 750.57C1127.31 751.508 1129.11 752.602 1130.83 753.852C1132.62 755.102 1134.23 756.391 1135.63 757.719C1137.04 758.969 1138.17 760.258 1139.03 761.586C1139.89 762.836 1140.36 764.008 1140.44 765.102ZM1194.46 804.711C1194.62 804.945 1194.58 805.727 1194.34 807.055C1194.19 808.383 1193.91 809.828 1193.52 811.391C1193.21 812.953 1192.86 814.438 1192.47 815.844C1192.16 817.172 1191.88 817.953 1191.65 818.188H1190.48C1190.24 818.188 1190.01 818.148 1189.77 818.07C1190.16 821.82 1190.48 824.828 1190.71 827.094C1190.95 829.359 1191.06 830.609 1191.06 830.844C1191.06 831.391 1190.79 832.172 1190.24 833.188C1189.77 834.203 1189.23 835.141 1188.6 836C1187.98 836.859 1187.31 837.523 1186.61 837.992C1185.98 838.539 1185.55 838.578 1185.32 838.109C1184.93 837.406 1184.11 835.297 1182.86 831.781C1181.61 828.266 1180.2 823.461 1178.64 817.367C1177.08 817.211 1175.44 817.055 1173.72 816.898C1172.08 816.742 1170.4 816.586 1168.68 816.43C1166.96 816.273 1165.24 816.078 1163.52 815.844C1161.88 815.531 1160.28 815.258 1158.72 815.023C1157.94 818.461 1157.16 821.703 1156.38 824.75C1155.67 827.797 1154.97 830.453 1154.27 832.719C1153.64 834.984 1153.09 836.781 1152.62 838.109C1152.16 839.438 1151.8 840.102 1151.57 840.102C1150.95 840.102 1150.32 839.711 1149.7 838.93C1149.07 838.148 1148.48 837.211 1147.94 836.117C1147.47 835.023 1147.08 833.891 1146.77 832.719C1146.45 831.547 1146.3 830.57 1146.3 829.789C1146.45 827.992 1146.65 826.117 1146.88 824.164C1147.2 822.211 1147.43 820.414 1147.59 818.773C1147.82 816.82 1148.05 814.906 1148.29 813.031H1147.82C1147.51 812.875 1147.08 812.523 1146.53 811.977C1145.98 811.43 1145.44 810.883 1144.89 810.336C1144.34 809.711 1143.88 809.125 1143.48 808.578C1143.09 807.953 1142.9 807.484 1142.9 807.172C1142.9 807.016 1143.45 806.859 1144.54 806.703C1145.71 806.547 1147.23 806.391 1149.11 806.234C1149.73 801.547 1150.4 796.664 1151.1 791.586C1151.8 786.508 1152.51 781.742 1153.21 777.289C1153.91 772.836 1154.58 768.969 1155.2 765.688C1155.91 762.328 1156.49 760.023 1156.96 758.773C1157.74 756.664 1159.11 754.789 1161.06 753.148C1163.02 751.43 1165.05 750.023 1167.16 748.93C1169.34 747.758 1171.41 746.859 1173.37 746.234C1175.32 745.609 1176.77 745.297 1177.7 745.297C1178.09 745.297 1178.52 746.195 1178.99 747.992C1179.54 749.711 1180.09 752.055 1180.63 755.023C1181.26 757.992 1181.88 761.469 1182.51 765.453C1183.21 769.359 1183.88 773.5 1184.5 777.875C1185.12 782.25 1185.71 786.742 1186.26 791.352C1186.88 795.883 1187.47 800.219 1188.02 804.359C1191.92 804.359 1194.07 804.477 1194.46 804.711ZM1160.95 805.414C1163.45 805.258 1165.95 805.141 1168.45 805.062C1170.95 804.984 1173.41 804.867 1175.83 804.711C1175.2 801.664 1174.5 798.266 1173.72 794.516C1173.09 791.312 1172.35 787.562 1171.49 783.266C1170.63 778.969 1169.77 774.242 1168.91 769.086C1167.98 773.695 1167.04 778.188 1166.1 782.562C1165.16 786.859 1164.3 790.727 1163.52 794.164C1162.66 798.148 1161.8 801.898 1160.95 805.414Z" fill="white"/>
<path d="M887.656 902.344C887.094 902.688 886.531 903.016 885.969 903.328C885.5 903.578 885 903.844 884.469 904.125C883.969 904.406 883.547 904.625 883.203 904.781C883.141 908.031 883.062 910.531 882.969 912.281C882.906 914.031 882.859 915.312 882.828 916.125C882.766 917.094 882.703 917.641 882.641 917.766C882.578 917.766 882.391 917.641 882.078 917.391C881.766 917.109 881.422 916.781 881.047 916.406C880.703 916.031 880.375 915.656 880.062 915.281C879.781 914.906 879.609 914.625 879.547 914.438C879.516 914.031 879.438 912.859 879.312 910.922C879.25 910.078 879.188 909.031 879.125 907.781C879.062 906.531 878.984 905.016 878.891 903.234C878.797 901.453 878.688 899.359 878.562 896.953C878.469 894.547 878.359 891.781 878.234 888.656C877.672 888.625 877.203 888.609 876.828 888.609C876.484 888.609 876.219 888.625 876.031 888.656C875.844 888.656 875.703 888.656 875.609 888.656C875.516 888.625 875.438 888.547 875.375 888.422C875.25 888.172 875.156 887.75 875.094 887.156C875.031 886.531 875 885.938 875 885.375C875 884.75 875.078 884.125 875.234 883.5C875.422 882.875 875.641 882.484 875.891 882.328C875.984 882.266 876.219 882.25 876.594 882.281C877 882.312 877.469 882.375 878 882.469C878.531 882.562 879.109 882.672 879.734 882.797C880.359 882.922 880.953 883.047 881.516 883.172C882.078 883.297 882.562 883.422 882.969 883.547C883.406 883.641 883.719 883.703 883.906 883.734C884.219 883.797 884.797 883.984 885.641 884.297C886.484 884.578 887.375 884.938 888.312 885.375C889.281 885.781 890.188 886.234 891.031 886.734C891.906 887.203 892.547 887.672 892.953 888.141C893.109 888.328 893.25 888.859 893.375 889.734C893.531 890.609 893.641 891.562 893.703 892.594C893.797 893.594 893.828 894.562 893.797 895.5C893.797 896.406 893.719 897 893.562 897.281C893.438 897.469 893.203 897.766 892.859 898.172C892.516 898.578 892.078 899.031 891.547 899.531C891.047 900 890.469 900.484 889.812 900.984C889.156 901.484 888.438 901.938 887.656 902.344ZM883.344 901.359C883.625 901.203 883.969 900.906 884.375 900.469C884.812 900 885.266 899.484 885.734 898.922C886.203 898.328 886.672 897.719 887.141 897.094C887.609 896.438 888.031 895.828 888.406 895.266C888.812 894.703 889.125 894.219 889.344 893.812C889.594 893.375 889.719 893.094 889.719 892.969C889.719 892.781 889.578 892.547 889.297 892.266C889.016 891.953 888.609 891.641 888.078 891.328C887.578 891.016 886.953 890.719 886.203 890.438C885.484 890.125 884.688 889.859 883.812 889.641L883.344 901.359ZM912.266 888.234C912.422 888.422 912.578 888.953 912.734 889.828C912.891 890.703 913 891.656 913.062 892.688C913.156 893.719 913.188 894.688 913.156 895.594C913.156 896.5 913.078 897.094 912.922 897.375C912.797 897.562 912.484 897.906 911.984 898.406C911.484 898.875 910.906 899.406 910.25 900C909.594 900.594 908.906 901.188 908.188 901.781C907.5 902.344 906.891 902.828 906.359 903.234C906.609 903.734 906.922 904.391 907.297 905.203C907.672 905.984 908.078 906.828 908.516 907.734C908.953 908.609 909.375 909.516 909.781 910.453C910.219 911.391 910.609 912.25 910.953 913.031C911.297 913.781 911.578 914.422 911.797 914.953C912.016 915.453 912.125 915.75 912.125 915.844C912.125 916 912.047 916.219 911.891 916.5C911.766 916.781 911.594 917.047 911.375 917.297C911.156 917.516 910.922 917.703 910.672 917.859C910.422 918.016 910.188 918.047 909.969 917.953C909.844 917.922 909.609 917.672 909.266 917.203C908.922 916.703 908.5 916.094 908 915.375C907.531 914.625 907 913.781 906.406 912.844C905.844 911.906 905.266 910.969 904.672 910.031C904.078 909.062 903.516 908.141 902.984 907.266C902.453 906.359 901.984 905.562 901.578 904.875C901.516 908.125 901.438 910.625 901.344 912.375C901.281 914.125 901.234 915.406 901.203 916.219C901.141 917.188 901.078 917.734 901.016 917.859C900.922 917.859 900.719 917.734 900.406 917.484C900.094 917.203 899.766 916.875 899.422 916.5C899.078 916.125 898.75 915.75 898.438 915.375C898.156 915 897.984 914.719 897.922 914.531C897.859 914.125 897.766 912.953 897.641 911.016C897.578 910.172 897.516 909.125 897.453 907.875C897.391 906.625 897.312 905.109 897.219 903.328C897.156 901.547 897.062 899.453 896.938 897.047C896.812 894.641 896.688 891.875 896.562 888.75C896 888.719 895.547 888.719 895.203 888.75C894.859 888.75 894.594 888.766 894.406 888.797C894.219 888.828 894.078 888.844 893.984 888.844C893.891 888.812 893.812 888.734 893.75 888.609C893.625 888.359 893.531 887.938 893.469 887.344C893.406 886.719 893.375 886.125 893.375 885.562C893.375 884.938 893.469 884.312 893.656 883.688C893.812 883.062 894.016 882.672 894.266 882.516C894.391 882.422 894.828 882.438 895.578 882.562C896.328 882.656 897.156 882.781 898.062 882.938C898.969 883.094 899.828 883.266 900.641 883.453C901.484 883.641 902.031 883.766 902.281 883.828C902.5 883.891 902.859 884 903.359 884.156C903.859 884.281 904.438 884.469 905.094 884.719C905.75 884.938 906.438 885.188 907.156 885.469C907.906 885.75 908.609 886.047 909.266 886.359C909.922 886.672 910.516 886.984 911.047 887.297C911.578 887.609 911.984 887.922 912.266 888.234ZM901.719 901.453C902 901.297 902.375 901 902.844 900.562C903.312 900.094 903.812 899.578 904.344 899.016C904.906 898.422 905.469 897.812 906.031 897.188C906.594 896.531 907.094 895.922 907.531 895.359C908 894.797 908.375 894.312 908.656 893.906C908.938 893.5 909.078 893.234 909.078 893.109C909.078 892.891 908.875 892.641 908.469 892.359C908.094 892.047 907.594 891.734 906.969 891.422C906.344 891.109 905.609 890.812 904.766 890.531C903.922 890.219 903.062 889.953 902.188 889.734L901.719 901.453ZM929.375 891.141C929.25 891.297 928.484 891.312 927.078 891.188C925.672 891.062 923.453 890.859 920.422 890.578C920.422 891.609 920.422 892.875 920.422 894.375C920.453 895.875 920.453 897.484 920.422 899.203C922.766 899.422 924.594 899.625 925.906 899.812C927.219 900 927.906 900.125 927.969 900.188C928.094 900.312 928.141 900.578 928.109 900.984C928.078 901.359 928 901.781 927.875 902.25C927.75 902.719 927.594 903.172 927.406 903.609C927.219 904.016 927.031 904.281 926.844 904.406C926.688 904.469 926.062 904.562 924.969 904.688C923.906 904.781 922.391 904.875 920.422 904.969C920.422 906.312 920.406 907.641 920.375 908.953C920.375 910.266 920.359 911.469 920.328 912.562C923.359 912.594 925.562 912.656 926.938 912.75C928.344 912.812 929.109 912.906 929.234 913.031C929.359 913.188 929.359 913.484 929.234 913.922C929.141 914.359 928.969 914.828 928.719 915.328C928.5 915.797 928.25 916.266 927.969 916.734C927.719 917.203 927.516 917.531 927.359 917.719C927.297 917.781 926.922 917.812 926.234 917.812C925.547 917.781 924.781 917.734 923.938 917.672C923.094 917.609 922.281 917.547 921.5 917.484C920.719 917.391 920.203 917.312 919.953 917.25C919.484 917.094 918.984 916.844 918.453 916.5C917.922 916.125 917.5 915.656 917.188 915.094C917.125 914.938 917.016 914.422 916.859 913.547C916.734 912.641 916.594 911.5 916.438 910.125C916.281 908.75 916.125 907.203 915.969 905.484C915.812 903.766 915.656 902.016 915.5 900.234C915.344 898.453 915.203 896.703 915.078 894.984C914.953 893.266 914.844 891.719 914.75 890.344C914.688 888.938 914.656 887.781 914.656 886.875C914.656 885.938 914.703 885.375 914.797 885.188C914.891 884.938 915.328 884.75 916.109 884.625C916.891 884.5 917.828 884.422 918.922 884.391C920.016 884.328 921.188 884.312 922.438 884.344C923.719 884.375 924.906 884.438 926 884.531C927.094 884.594 928.016 884.688 928.766 884.812C929.516 884.906 929.938 885 930.031 885.094C930.156 885.25 930.219 885.609 930.219 886.172C930.25 886.734 930.219 887.359 930.125 888.047C930.062 888.703 929.953 889.344 929.797 889.969C929.672 890.562 929.531 890.953 929.375 891.141ZM947.891 889.641C947.922 890.109 947.859 890.812 947.703 891.75C947.578 892.688 947.359 893.625 947.047 894.562C946.734 895.5 946.328 896.328 945.828 897.047C945.359 897.734 944.812 898.078 944.188 898.078C943.875 898.078 943.609 897.891 943.391 897.516C943.172 897.141 942.984 896.656 942.828 896.062C942.672 895.469 942.547 894.812 942.453 894.094C942.359 893.344 942.266 892.625 942.172 891.938C942.109 891.25 942.047 890.625 941.984 890.062C941.953 889.469 941.922 889.031 941.891 888.75C941.766 888.562 941.531 888.375 941.188 888.188C940.875 887.969 940.594 887.859 940.344 887.859C940.062 887.859 939.719 888.125 939.312 888.656C938.938 889.188 938.578 889.812 938.234 890.531C937.891 891.25 937.609 891.969 937.391 892.688C937.172 893.375 937.078 893.906 937.109 894.281C937.109 894.531 937.344 894.969 937.812 895.594C938.312 896.219 938.922 896.953 939.641 897.797C940.359 898.641 941.141 899.562 941.984 900.562C942.828 901.531 943.609 902.5 944.328 903.469C945.047 904.438 945.656 905.359 946.156 906.234C946.656 907.109 946.922 907.859 946.953 908.484C947.016 909.234 946.844 910.203 946.438 911.391C946.062 912.547 945.578 913.672 944.984 914.766C944.391 915.859 943.75 916.812 943.062 917.625C942.406 918.406 941.812 918.812 941.281 918.844C940.938 918.875 940.484 918.719 939.922 918.375C939.359 918.062 938.75 917.641 938.094 917.109C937.438 916.578 936.766 916 936.078 915.375C935.422 914.719 934.797 914.078 934.203 913.453C933.641 912.828 933.156 912.266 932.75 911.766C932.375 911.234 932.156 910.844 932.094 910.594C931.969 910.219 931.891 909.719 931.859 909.094C931.859 908.438 931.891 907.812 931.953 907.219C932.047 906.594 932.156 906.062 932.281 905.625C932.438 905.156 932.625 904.922 932.844 904.922C933 904.922 933.25 905.125 933.594 905.531C933.969 905.938 934.391 906.453 934.859 907.078C935.328 907.703 935.828 908.391 936.359 909.141C936.922 909.859 937.453 910.531 937.953 911.156C938.453 911.781 938.906 912.312 939.312 912.75C939.719 913.156 940.047 913.344 940.297 913.312C940.484 913.312 940.688 913.172 940.906 912.891C941.125 912.578 941.328 912.219 941.516 911.812C941.703 911.375 941.859 910.938 941.984 910.5C942.109 910.062 942.172 909.719 942.172 909.469C942.141 909.094 941.828 908.562 941.234 907.875C940.672 907.156 939.953 906.359 939.078 905.484C938.234 904.578 937.312 903.641 936.312 902.672C935.344 901.703 934.422 900.781 933.547 899.906C932.703 899 931.984 898.188 931.391 897.469C930.828 896.75 930.531 896.203 930.5 895.828C930.469 895.453 930.578 894.875 930.828 894.094C931.078 893.281 931.406 892.375 931.812 891.375C932.25 890.375 932.734 889.359 933.266 888.328C933.797 887.297 934.344 886.344 934.906 885.469C935.469 884.594 936.016 883.891 936.547 883.359C937.078 882.797 937.547 882.516 937.953 882.516C938.484 882.516 939.094 882.641 939.781 882.891C940.469 883.109 941.172 883.422 941.891 883.828C942.641 884.203 943.359 884.641 944.047 885.141C944.766 885.641 945.406 886.156 945.969 886.688C946.531 887.188 946.984 887.703 947.328 888.234C947.672 888.734 947.859 889.203 947.891 889.641ZM964.109 891.141C963.984 891.297 963.219 891.312 961.812 891.188C960.406 891.062 958.188 890.859 955.156 890.578C955.156 891.609 955.156 892.875 955.156 894.375C955.188 895.875 955.188 897.484 955.156 899.203C957.5 899.422 959.328 899.625 960.641 899.812C961.953 900 962.641 900.125 962.703 900.188C962.828 900.312 962.875 900.578 962.844 900.984C962.812 901.359 962.734 901.781 962.609 902.25C962.484 902.719 962.328 903.172 962.141 903.609C961.953 904.016 961.766 904.281 961.578 904.406C961.422 904.469 960.797 904.562 959.703 904.688C958.641 904.781 957.125 904.875 955.156 904.969C955.156 906.312 955.141 907.641 955.109 908.953C955.109 910.266 955.094 911.469 955.062 912.562C958.094 912.594 960.297 912.656 961.672 912.75C963.078 912.812 963.844 912.906 963.969 913.031C964.094 913.188 964.094 913.484 963.969 913.922C963.875 914.359 963.703 914.828 963.453 915.328C963.234 915.797 962.984 916.266 962.703 916.734C962.453 917.203 962.25 917.531 962.094 917.719C962.031 917.781 961.656 917.812 960.969 917.812C960.281 917.781 959.516 917.734 958.672 917.672C957.828 917.609 957.016 917.547 956.234 917.484C955.453 917.391 954.938 917.312 954.688 917.25C954.219 917.094 953.719 916.844 953.188 916.5C952.656 916.125 952.234 915.656 951.922 915.094C951.859 914.938 951.75 914.422 951.594 913.547C951.469 912.641 951.328 911.5 951.172 910.125C951.016 908.75 950.859 907.203 950.703 905.484C950.547 903.766 950.391 902.016 950.234 900.234C950.078 898.453 949.938 896.703 949.812 894.984C949.688 893.266 949.578 891.719 949.484 890.344C949.422 888.938 949.391 887.781 949.391 886.875C949.391 885.938 949.438 885.375 949.531 885.188C949.625 884.938 950.062 884.75 950.844 884.625C951.625 884.5 952.562 884.422 953.656 884.391C954.75 884.328 955.922 884.312 957.172 884.344C958.453 884.375 959.641 884.438 960.734 884.531C961.828 884.594 962.75 884.688 963.5 884.812C964.25 884.906 964.672 885 964.766 885.094C964.891 885.25 964.953 885.609 964.953 886.172C964.984 886.734 964.953 887.359 964.859 888.047C964.797 888.703 964.688 889.344 964.531 889.969C964.406 890.562 964.266 890.953 964.109 891.141ZM983.703 885.141C983.766 885.266 983.797 885.703 983.797 886.453C983.828 887.203 983.828 888.109 983.797 889.172C983.797 890.234 983.766 891.375 983.703 892.594C983.641 893.781 983.562 894.906 983.469 895.969C983.281 898.344 983.062 900.688 982.812 903C982.562 905.312 982.312 907.391 982.062 909.234C981.844 911.078 981.625 912.594 981.406 913.781C981.219 914.938 981.109 915.578 981.078 915.703C981.016 915.859 980.875 916.094 980.656 916.406C980.438 916.719 980.203 917.031 979.953 917.344C979.703 917.625 979.453 917.875 979.203 918.094C978.984 918.312 978.812 918.422 978.688 918.422C978.438 918.203 977.984 917.344 977.328 915.844C977.047 915.188 976.703 914.375 976.297 913.406C975.891 912.406 975.422 911.188 974.891 909.75C974.359 908.312 973.734 906.625 973.016 904.688C972.328 902.719 971.547 900.438 970.672 897.844C970.859 900.406 971.016 902.656 971.141 904.594C971.266 906.531 971.359 908.219 971.422 909.656C971.516 911.094 971.578 912.312 971.609 913.312C971.641 914.281 971.656 915.094 971.656 915.75C971.656 917.25 971.609 918.109 971.516 918.328C971.203 918.328 970.859 918.188 970.484 917.906C970.141 917.594 969.812 917.234 969.5 916.828C969.188 916.391 968.906 915.969 968.656 915.562C968.438 915.156 968.312 914.859 968.281 914.672C968.25 914.547 968.156 913.969 968 912.938C967.844 911.906 967.656 910.594 967.438 909C967.25 907.375 967.031 905.562 966.781 903.562C966.562 901.531 966.344 899.469 966.125 897.375C965.938 895.281 965.781 893.25 965.656 891.281C965.531 889.281 965.469 887.5 965.469 885.938C965.469 885.688 965.781 885.359 966.406 884.953C967.031 884.516 967.734 884.109 968.516 883.734C969.328 883.328 970.078 882.984 970.766 882.703C971.453 882.391 971.875 882.234 972.031 882.234C972.156 882.234 972.281 882.594 972.406 883.312C972.562 884.031 972.719 884.938 972.875 886.031C973.062 887.125 973.266 888.344 973.484 889.688C973.734 891.031 974 892.312 974.281 893.531C974.531 894.844 974.844 896.328 975.219 897.984C975.531 899.391 975.922 901.078 976.391 903.047C976.891 905.016 977.469 907.203 978.125 909.609C978.125 907.922 978.125 906.125 978.125 904.219C978.156 902.312 978.188 900.422 978.219 898.547C978.25 896.672 978.281 894.875 978.312 893.156C978.375 891.406 978.422 889.859 978.453 888.516C978.516 887.172 978.562 886.094 978.594 885.281C978.656 884.469 978.703 884.031 978.734 883.969C978.828 883.844 979.125 883.812 979.625 883.875C980.125 883.906 980.672 884 981.266 884.156C981.859 884.281 982.391 884.453 982.859 884.672C983.359 884.859 983.641 885.016 983.703 885.141ZM1001.28 883.406C1001.38 883.562 1001.42 883.922 1001.42 884.484C1001.45 885.047 1001.44 885.656 1001.38 886.312C1001.31 886.969 1001.22 887.609 1001.09 888.234C1001 888.828 1000.89 889.219 1000.77 889.406C1000.67 889.562 1000.09 889.625 999.031 889.594C998 889.531 996.516 889.375 994.578 889.125C994.578 890.344 994.562 891.906 994.531 893.812C994.5 895.719 994.438 897.766 994.344 899.953C994.281 902.109 994.203 904.281 994.109 906.469C994.047 908.656 993.969 910.641 993.875 912.422C993.781 914.203 993.688 915.656 993.594 916.781C993.5 917.906 993.422 918.5 993.359 918.562C993.234 918.656 993.016 918.609 992.703 918.422C992.422 918.266 992.125 918.031 991.812 917.719C991.5 917.406 991.203 917.094 990.922 916.781C990.672 916.438 990.5 916.141 990.406 915.891C990.375 915.766 990.312 915.156 990.219 914.062C990.156 912.969 990.078 911.594 989.984 909.938C989.891 908.281 989.781 906.438 989.656 904.406C989.531 902.375 989.406 900.359 989.281 898.359C989.156 896.359 989.016 894.484 988.859 892.734C988.734 890.984 988.625 889.531 988.531 888.375C986.406 888.156 984.875 887.938 983.938 887.719C983 887.5 982.469 887.328 982.344 887.203C982.219 887.078 982.094 886.844 981.969 886.5C981.812 886.125 981.688 885.75 981.594 885.375C981.5 885 981.453 884.656 981.453 884.344C981.422 884 981.453 883.781 981.547 883.688C981.609 883.625 982.141 883.562 983.141 883.5C984.109 883.438 985.312 883.375 986.75 883.312C988.188 883.25 989.734 883.203 991.391 883.172C993.078 883.141 994.641 883.125 996.078 883.125C997.516 883.125 998.719 883.156 999.688 883.219C1000.69 883.25 1001.22 883.312 1001.28 883.406ZM1020.59 905.484C1020.66 905.578 1020.64 905.891 1020.55 906.422C1020.48 906.953 1020.38 907.531 1020.22 908.156C1020.09 908.781 1019.95 909.375 1019.8 909.938C1019.67 910.469 1019.56 910.781 1019.47 910.875H1019C1018.91 910.875 1018.81 910.859 1018.72 910.828C1018.88 912.328 1019 913.531 1019.09 914.438C1019.19 915.344 1019.23 915.844 1019.23 915.938C1019.23 916.156 1019.12 916.469 1018.91 916.875C1018.72 917.281 1018.5 917.656 1018.25 918C1018 918.344 1017.73 918.609 1017.45 918.797C1017.2 919.016 1017.03 919.031 1016.94 918.844C1016.78 918.562 1016.45 917.719 1015.95 916.312C1015.45 914.906 1014.89 912.984 1014.27 910.547C1013.64 910.484 1012.98 910.422 1012.3 910.359C1011.64 910.297 1010.97 910.234 1010.28 910.172C1009.59 910.109 1008.91 910.031 1008.22 909.938C1007.56 909.812 1006.92 909.703 1006.3 909.609C1005.98 910.984 1005.67 912.281 1005.36 913.5C1005.08 914.719 1004.8 915.781 1004.52 916.688C1004.27 917.594 1004.05 918.312 1003.86 918.844C1003.67 919.375 1003.53 919.641 1003.44 919.641C1003.19 919.641 1002.94 919.484 1002.69 919.172C1002.44 918.859 1002.2 918.484 1001.98 918.047C1001.8 917.609 1001.64 917.156 1001.52 916.688C1001.39 916.219 1001.33 915.828 1001.33 915.516C1001.39 914.797 1001.47 914.047 1001.56 913.266C1001.69 912.484 1001.78 911.766 1001.84 911.109C1001.94 910.328 1002.03 909.562 1002.12 908.812H1001.94C1001.81 908.75 1001.64 908.609 1001.42 908.391C1001.2 908.172 1000.98 907.953 1000.77 907.734C1000.55 907.484 1000.36 907.25 1000.2 907.031C1000.05 906.781 999.969 906.594 999.969 906.469C999.969 906.406 1000.19 906.344 1000.62 906.281C1001.09 906.219 1001.7 906.156 1002.45 906.094C1002.7 904.219 1002.97 902.266 1003.25 900.234C1003.53 898.203 1003.81 896.297 1004.09 894.516C1004.38 892.734 1004.64 891.188 1004.89 889.875C1005.17 888.531 1005.41 887.609 1005.59 887.109C1005.91 886.266 1006.45 885.516 1007.23 884.859C1008.02 884.172 1008.83 883.609 1009.67 883.172C1010.55 882.703 1011.38 882.344 1012.16 882.094C1012.94 881.844 1013.52 881.719 1013.89 881.719C1014.05 881.719 1014.22 882.078 1014.41 882.797C1014.62 883.484 1014.84 884.422 1015.06 885.609C1015.31 886.797 1015.56 888.188 1015.81 889.781C1016.09 891.344 1016.36 893 1016.61 894.75C1016.86 896.5 1017.09 898.297 1017.31 900.141C1017.56 901.953 1017.8 903.688 1018.02 905.344C1019.58 905.344 1020.44 905.391 1020.59 905.484ZM1007.19 905.766C1008.19 905.703 1009.19 905.656 1010.19 905.625C1011.19 905.594 1012.17 905.547 1013.14 905.484C1012.89 904.266 1012.61 902.906 1012.3 901.406C1012.05 900.125 1011.75 898.625 1011.41 896.906C1011.06 895.188 1010.72 893.297 1010.38 891.234C1010 893.078 1009.62 894.875 1009.25 896.625C1008.88 898.344 1008.53 899.891 1008.22 901.266C1007.88 902.859 1007.53 904.359 1007.19 905.766Z" fill="white"/>
<rect x="645" y="928" width="600" height="4" fill="#FF8C00"/>
</svg>
